/* XPM */
static char *result[] = {
/* columns rows colors chars-per-pixel */
"64 64 182 2 ",
"   c #0D1113",
".  c #111416",
"X  c #191718",
"o  c #191D1F",
"O  c #15181B",
"+  c #261B1A",
"@  c #2C231F",
"#  c #1A1F20",
"$  c #1A1E2C",
"%  c #1D2224",
"&  c #1D202E",
"*  c #1F2230",
"=  c #222425",
"-  c #2E2926",
";  c #24292B",
":  c #282D2F",
">  c #222729",
",  c #382821",
"<  c #242734",
"1  c #262936",
"2  c #2B2D39",
"3  c #2B2F31",
"4  c #2E3334",
"5  c #2F3638",
"6  c #313536",
"7  c #313739",
"8  c #353B3D",
"9  c #3C3B3A",
"0  c #3D3937",
"q  c #452B1F",
"w  c #592B28",
"e  c #433027",
"r  c #5A3929",
"t  c #443D3A",
"y  c #66302D",
"u  c #6B312E",
"i  c #71332E",
"p  c #743530",
"a  c #7A3732",
"s  c #7E3933",
"d  c #46433E",
"f  c #544238",
"g  c #7B482F",
"h  c #674839",
"j  c #7C4A30",
"k  c #774D38",
"l  c #7B543D",
"z  c #77523D",
"x  c #333640",
"c  c #363943",
"v  c #393D43",
"b  c #3B3F49",
"n  c #3C4344",
"m  c #3E454A",
"M  c #474A46",
"N  c #4A4B46",
"B  c #414549",
"V  c #444C4C",
"C  c #474742",
"Z  c #494D52",
"A  c #454851",
"S  c #4C5154",
"D  c #565A5E",
"F  c #54585A",
"G  c #715B4E",
"H  c #5A5D62",
"J  c #5C6163",
"K  c #616569",
"L  c #65696A",
"P  c #6B6E71",
"I  c #6D7274",
"U  c #6E7279",
"Y  c #737577",
"T  c #787B7E",
"R  c #74797C",
"E  c #843C35",
"W  c #883D37",
"Q  c #8A3E38",
"!  c #873C38",
"~  c #96512E",
"^  c #8C4335",
"/  c #8F4139",
"(  c #874732",
")  c #924636",
"_  c #954935",
"`  c #9A4C36",
"'  c #934439",
"]  c #974839",
"[  c #9B4A3A",
"{  c #81553D",
"}  c #8B553A",
"|  c #84583E",
" . c #935232",
".. c #9D5234",
"X. c #995837",
"o. c #A24E3B",
"O. c #A35436",
"+. c #A25934",
"@. c #AC5C35",
"#. c #A5513A",
"$. c #AC553C",
"%. c #AD5C38",
"&. c #A75B39",
"*. c #B45D3A",
"=. c #BA5E3D",
"-. c #B05F36",
";. c #A7613C",
":. c #B56137",
">. c #B6633B",
",. c #BC653A",
"<. c #BD683D",
"1. c #B86337",
"2. c #C1663B",
"3. c #C4693B",
"4. c #CB6D3D",
"5. c #D06F3E",
"6. c #D3713F",
"7. c #D9733F",
"8. c #A06141",
"9. c #CD6C40",
"0. c #D16E40",
"q. c #CF7243",
"w. c #CD764B",
"e. c #CD794E",
"r. c #C7764E",
"t. c #D57240",
"y. c #D97441",
"u. c #D0794D",
"i. c #C57952",
"p. c #CC7B51",
"a. c #C47E5A",
"s. c #C87F5B",
"d. c #B78D77",
"f. c #C5805D",
"g. c #CC835E",
"h. c #C68666",
"j. c #CC8562",
"k. c #CD8F6F",
"l. c #C48C6F",
"z. c #CB8E70",
"x. c #CB9376",
"c. c #C4957D",
"v. c #CF9A7F",
"b. c #787B80",
"n. c #828589",
"m. c #86888B",
"M. c #9B918C",
"N. c #888D90",
"B. c #8D9195",
"V. c #939599",
"C. c #96999A",
"Z. c #AB998F",
"A. c #ACA09B",
"S. c #9C9EA0",
"D. c #A7A4A4",
"F. c #B4ABA6",
"G. c #BCBCBC",
"H. c #B3B6B7",
"J. c #C29882",
"K. c #C6A18F",
"L. c #C9A28E",
"P. c #C6A392",
"I. c #C6AB9D",
"U. c #CEB4A6",
"Y. c #CAB6AC",
"T. c #C6BCB7",
"R. c #C2C2C3",
"E. c #CCCCCC",
"W. c #CEC8C5",
"Q. c #D6CAC4",
"!. c #D8CEC9",
"~. c #DBD3CE",
"^. c #D2D3D4",
"/. c #D9D4D2",
"(. c #DCDBDB",
"). c #E0DAD7",
"_. c #E1E0DF",
"`. c #E3E3E3",
"'. c #E7E8E9",
"]. c #ECEDED",
"[. c #EDEFF0",
"{. c None",
/* pixels */
"{.{.{.{.{.{.{.{.{.{.{.4 6 6 6 7 7 7 7 7 8 6 8 7 8 8 4 8 8 5 7 8 7 8 7 8 4 8 6 8 8 6 6 6 6 4 6 6 6 4 4 4 4 {.{.{.{.{.{.{.{.{.{.{.",
"{.{.{.{.{.{.{.{.{.7 8 8 8 8 8 8 8 8 8 8 8 8 8 8 8 8 8 8 8 8 8 8 8 8 8 8 8 8 8 8 8 8 8 n V V J V 8 n n V F S 8 8 {.{.{.{.{.{.{.{.",
"{.{.{.{.{.{.{.{.8 8 8 8 8 8 8 8 8 8 8 8 8 8 8 8 8 8 8 8 8 8 8 8 8 8 8 8 8 8 8 8 8 8 8 B F J n.D 8 I K B.V.I V T V {.{.{.{.{.{.{.",
"{.{.{.{.{.{.{.4 8 8 8 8 v 8 8 8 8 v 8 8 8 8 8 8 8 8 8 8 8 7 8 8 8 7 8 8 8 8 8 8 8 8 8 8 8 8 n v 8 B V K R P S B.F 4 {.{.{.{.{.{.",
"{.{.{.{.{.{.{.7 8 8 8 8 8 8 8 8 : ; = % % # % o o o o o o o o o o o o o o o o % % % % = > > ; : 4 6 8 8 v n 8 V v 7 {.{.{.{.{.{.",
"{.{.{.{.{.{.{.8 8 n 8 8 8 8 8 % . . . . . . . . .     . . . . .   . . .   . .   . . .   . . . . . o 4 8 8 8 8 8 8 8 {.{.{.{.{.{.",
"{.{.{.{.{.{.{.8 8 8 8 8 8 8 4 {.{.{.{.{.{.{.{.{.{.{.{.{.{.{.{.{.{.{.{.{.{.{.{.{.{.{.{.{.{.{.{.{.{.{.: 8 8 8 8 8 8 8 {.{.{.{.{.{.",
"{.{.{.{.{.{.4 8 8 8 8 8 8 8 4 {.{.{.{.{.{.{.{.{.{.{.{.{.{.{.{.{.{.{.{.{.{.{.{.{.{.{.{.{.{.{.{.{.{.{.{.8 8 8 8 8 8 8 4 {.{.{.{.{.",
"{.{.{.{.{.{.4 8 8 8 8 8 8 8 4 {.{.{.{.{.{.{.{.{.{.{.{.{.{.{.{.{.{.{.{.{.{.{.{.{.{.{.{.{.{.{.{.{.{.{.{.8 v 8 8 8 8 8 4 {.{.{.{.{.",
"{.{.{.{.{.{.5 8 8 8 8 8 8 8 {.{.{.{.{.{.{.{.{.{.{.{.{.{.{.{.{.{.{.{.{.{.{.{.{.{.{.{.{.{.{.{.{.{.{.{.{.7 8 8 8 8 8 8 4 {.{.{.{.{.",
"{.{.{.{.{.{.4 8 8 8 8 8 8 8 {.{.{.{.{.{.{.{.{.{.{.{.{.{.,.,.3.8.G 2.,.,.{.{.{.{.{.{.{.{.{.{.{.{.{.{.{.8 8 8 8 8 8 8 8 {.{.{.{.{.",
"{.{.{.{.{.{.8 8 8 8 v 8 8 8 {.{.{.{.{.{.{.{.{.2.4.6.t.7.t.y.6.l d ;.y.y.y.t.6.5.4.3.{.{.{.{.{.{.{.{.{.8 8 8 8 8 8 8 6 {.{.{.{.{.",
"{.{.{.{.{.{.8 8 8 8 8 c 8 8 {.{.{.{.{.{.3.6.t.y.t.y.y.y.y.y.<.N n z y.y.y.y.y.y.y.y.7.6.4.<.{.{.{.{.{.4 8 8 v 8 8 8 7 {.{.{.{.{.",
"{.{.{.{.{.{.8 8 8 8 8 8 8 6 {.{.{.<.5.t.y.y.y.y.y.y.y.y.y.y.<.N m l 7.y.y.y.y.y.y.y.y.y.y.7.6.4.{.{.{.4 8 8 8 8 8 8 8 {.{.{.{.{.",
"{.{.{.{.{.{.8 8 8 8 8 8 8 4 {.3.6.y.y.y.y.y.y.t.y.y.y.y.y.y.<.M S z 7.y.y.y.y.y.t.y.y.y.t.y.y.y.7.4.{.6 8 8 8 8 8 8 6 {.{.{.{.{.",
"{.{.{.{.{.{.8 8 8 8 8 8 t } 4.y.y.y.y.y.y.y.y.y.y.y.y.y.7.7.<.M n l 7.7.y.y.y.y.y.y.y.y.y.y.y.y.y.y.6.%.f 8 8 8 8 8 8 {.{.{.{.{.",
"{.{.{.{.{.{.8 8 8 8 8 h >.y.y.y.y.y.y.y.y.y.y.y.y.y.y.y.y.y.<.M n l y.y.y.y.y.y.t.y.y.y.y.y.y.y.y.y.y.y.4.k 8 8 8 8 7 {.{.{.{.{.",
"{.{.{.{.{.{.8 8 8 0 } 6.y.y.y.y.y.y.y.y.y.y.y.y.y.y.y.y.y.y.<.V V { y.y.y.y.y.y.y.y.y.y.y.y.y.y.y.y.y.y.y.t.X.9 5 8 4 {.{.{.{.{.",
"{.{.{.{.{.{.O O , %.y.y.y.y.y.y.y.y.y.y.y.y.y.y.y.y.y.y.y.y.<.M B { y.y.y.y.y.y.y.y.y.y.y.y.y.y.y.y.y.y.y.y.y.+.- O o {.{.{.{.{.",
"{.{.{.{.{.{.{.q 1.y.y.y.y.y.y.y.y.7.7.7.y.y.y.y.y.y.y.y.y.y.>.M n { y.y.y.y.t.y.y.y.y.y.y.7.7.y.y.y.y.y.y.y.y.y.~ + {.{.{.{.{.{.",
"{.{.{.{.{.{.{.4.y.y.y.y.y.y.y.t.e.j.j.g.u.t.7.y.y.y.y.y.y.y.>.M n | 7.y.y.y.y.y.y.y.7.q.s.k.k.j.u.6.y.y.y.y.y.y.t.:.{.{.{.{.{.{.",
"{.{.{.{.{.{.3.y.y.y.y.y.y.t.h.U.).`.`.(.~.U.f.7.y.y.y.y.y.y.>.N V l y.y.y.y.y.y.y.0.x.Q.(._.`.`.!.L.p.7.y.y.y.y.y.6.{.{.{.{.{.{.",
"{.{.{.{.{.-.y.y.y.y.y.y.t.P._.'.G.b.P Y B.H.W.f.y.y.y.y.y.y.>.V V | y.y.y.y.y.y.0.L.E.n.H K T S.E.].Q.h.6.y.y.y.y.y.3.{.{.{.{.{.",
"{.{.{.{.{.4.y.y.y.y.y.5.P.'.`.b.1 $ $ < 7 H C.I.t.y.y.y.y.y.>.C 8 | y.y.y.y.y.y.s.R.Z $ $ & < B I G.]./.f.7.y.y.y.y.t.{.{.{.{.{.",
"{.{.{.{.@.t.y.y.y.y.7.a.(.].C.* & & & & * x P F.0.y.y.y.y.y.>.- = j y.y.y.y.y.7.c.V.$ & & & & & v Y (.[.Y.t.y.y.y.y.y.3.{.{.{.{.",
"{.{.{.{.3.y.y.y.y.y.6.c.].`.Z $ & & & & $ 1 D Z.t.y.y.y.y.y.,.- % g y.y.y.y.7.7.l.B.$ $ & & & & 1 Z R.[.(.p.7.y.y.y.y.6.{.{.{.{.",
"{.{.{.{.6.y.y.y.y.y.6.P.[.(.c $ $ * & & $ < K d.6.y.y.y.y.y.,.- % j 7.y.y.y.y.y.e.F.7 $ & & & & < v G.[.`.f.7.y.y.y.y.y.:.{.{.{.",
"{.{.{.{.t.y.y.y.y.7.6.J.].`.D $ $ & $ $ $ b M.r.7.y.y.y.y.y.,.- % j y.y.y.y.y.y.0.c.V.2 $ $ $ $ $ F (.]./.r.y.y.y.y.y.y.3.{.{.{.",
"{.{.{.@.y.y.y.y.y.y.7.i.Q.[.E.P v 2 2 b U A.s.y.y.y.y.y.y.y.2.- # j y.y.y.y.y.y.y.t.J.D.K b c A T ^.].`.Z.7.7.7.y.y.y.y.6.{.{.{.",
"{.{.{.1.y.y.y.y.y.y.y.7.f.U.(.`.^.R.R.Y.L.u.7.y.y.y.y.y.y.y.<.- % } y.y.y.y.y.y.y.y.7.j.I.T.E.(.'.`.!.c.t.y.7.7.y.y.y.y.t.{.{.{.",
"{.{.{.3.y.y.y.y.y.y.y.y.7.t.p.z.L.k.j.u.t.y.y.7.y.y.y.y.y.y.4.e @  .y.y.y.y.y.y.y.y.y.y.t.u.j.z.z.j.w.7.y.y.y.y.y.y.y.y.y.@.{.{.",
"{.{.{.3.y.y.y.y.y.y.y.y.y.y.y.7.7.7.7.y.y.y.2.5.y.y.y.y.y.y.y.+.r 5.y.y.y.y.y.y.y.y.0.y.y.y.7.7.7.7.7.y.y.y.y.y.y.y.y.y.y.:.{.{.",
"{.{.{.3.y.y.y.y.y.y.y.y.y.y.y.y.y.y.y.y.y.4.4.y.y.y.y.y.y.y.y.3. .7.y.y.y.y.y.y.y.y.9.3.y.y.y.y.y.y.y.y.y.y.t.y.y.y.y.y.y.,.{.{.",
"{.{.{.2.y.y.y.y.y.y.y.y.y.y.y.y.y.y.y.y.y.3.4.y.y.y.y.y.y.y.y.5.;.y.y.y.y.y.y.y.y.y.0.2.y.y.y.y.y.y.y.y.y.y.y.y.y.y.y.y.y.,.{.{.",
"{.{.{.4.y.y.y.y.y.y.y.y.y.y.y.y.y.y.y.y.y.4.3.y.y.y.y.y.y.y.0.*.@.,.7.y.y.y.y.y.t.y.9.3.y.y.y.y.y.y.y.y.y.y.y.y.y.y.y.y.y.,.{.{.",
"{.{.{.2.y.y.y.y.y.y.y.y.y.y.y.y.y.y.y.y.y.y.3.>.9.9.9.9.,.#.] 1.6...` *.2.9.9.9.9.>.1.y.y.y.y.y.y.y.y.y.y.y.y.y.y.y.y.y.y.1.{.{.",
"{.{.{.2.y.y.y.y.y.y.y.y.y.y.y.y.y.y.y.y.y.y.y.2.[ ] ) ^ ' O.4.y.y.t.1.[ ] ) ) ` ..,.y.y.y.y.y.y.t.y.y.y.y.y.y.y.y.y.y.y.y.:.{.{.",
"{.{.{.3.y.y.y.y.y.y.y.y.y.y.y.y.y.y.y.t.y.t.y.y.t.9.4.4.0.y.y.y.y.y.y.y.t.5.4.t.y.y.y.y.y.y.y.y.y.y.y.y.y.y.y.y.y.t.y.y.y.+.{.{.",
"{.{.{.,.y.y.y.y.y.y.y.t.y.y.y.y.y.y.y.y.y.y.y.y.y.y.y.y.y.y.y.y.y.y.y.y.y.y.y.y.y.y.y.y.y.y.y.y.y.y.y.y.y.y.y.y.y.y.y.y.t.~ {.{.",
"{.{.{.;.y.y.y.y.y.y.y.y.y.y.y.y.y.y.y.y.y.y.y.y.y.y.y.y.y.y.y.y.y.y.y.y.y.y.y.y.y.y.y.y.y.y.y.y.y.y.y.y.y.t.y.y.y.y.y.y.6.:.{.{.",
"{.{.{.+.7.y.y.y.y.y.y.y.y.y.y.y.y.y.y.y.y.y.y.y.y.y.y.y.y.y.y.y.y.y.y.y.t.y.y.y.y.y.y.y.y.y.t.y.y.y.y.y.y.y.y.y.y.y.y.y.4.3.@.{.",
"{.{.{.1.6.y.y.y.y.y.y.y.y.y.y.y.y.y.y.t.y.y.y.y.y.y.y.y.y.y.y.y.y.y.y.y.y.y.y.y.y.y.y.y.y.y.y.y.y.y.t.y.y.y.y.y.y.y.y.y.3.5.3.{.",
"{.{.3.3.4.y.y.y.y.y.y.y.y.y.y.y.y.y.y.y.y.y.y.y.y.y.y.y.y.y.y.y.y.y.y.y.y.y.y.y.y.y.y.y.y.y.y.y.y.y.y.y.y.y.y.y.y.y.y.y.,.t.4.{.",
"{.{.5.4.3.y.y.y.y.y.t.y.y.y.t.y.y.y.y.y.y.y.y.y.y.y.y.y.t.y.y.y.y.y.y.y.y.y.y.y.y.y.y.y.y.y.y.y.y.y.y.y.y.y.t.y.y.y.y.4.3.y.t.{.",
"{.@.y.t.,.7.y.y.y.y.y.y.y.y.y.y.y.y.y.y.y.y.y.y.y.y.y.y.y.y.y.y.y.y.y.y.y.y.y.y.t.y.y.y.y.y.y.y.y.y.y.y.y.y.y.y.y.y.7.3.4.y.y.@.",
"{.<.y.y.3.4.y.y.y.y.y.y.y.y.y.y.y.t.y.y.y.t.y.y.y.y.y.y.y.y.y.y.y.y.y.y.y.y.y.y.y.y.y.y.y.y.y.y.y.y.y.y.y.y.y.y.y.7.6.,.7.y.y.1.",
"{.4.y.y.6.,.y.y.y.y.y.y.y.t.y.y.y.y.y.y.y.y.y.y.y.y.y.y.y.y.y.y.y.y.y.y.y.y.y.y.y.y.y.y.y.y.y.y.y.t.y.y.y.y.y.y.y.y.3.4.y.y.y.1.",
"{.6.y.y.7.3.4.y.y.y.y.y.y.y.y.y.y.y.y.y.y.y.y.y.y.y.y.3.9.0.y.y.y.y.y.y.t.4.y.y.y.y.y.y.y.t.y.y.y.y.y.y.y.y.y.t.y.5.3.y.y.y.y.,.",
"{.6.y.y.y.y.,.6.y.y.y.y.y.t.y.y.y.y.y.t.y.y.y.y.y.y.0.) ' [ o.o.$.$.$.#.#._ 4.y.y.y.y.y.y.y.y.y.y.y.y.y.y.y.y.y.t.,.6.y.y.y.y.1.",
"{.6.y.y.y.y.t.,.t.y.y.y.y.y.y.y.y.y.y.y.y.y.y.y.y.y.&.W Q Q Q ! ! ! Q Q ! W ..7.y.y.y.y.y.y.y.y.y.y.y.y.y.y.y.t.,.5.y.y.y.y.y.:.",
"{.6.y.y.y.y.y.0.,.y.y.y.y.y.y.y.y.y.y.y.y.y.y.y.y.:.W W Q Q Q Q Q Q Q Q Q Q W %.y.y.y.y.y.y.y.y.y.y.y.y.y.y.7.2.4.y.y.y.y.y.t.{.",
"{.4.y.y.y.y.y.y.4.3.y.y.y.y.y.y.y.y.y.y.y.y.y.y.*.W W W Q Q Q Q Q Q Q Q Q Q W W %.t.y.t.y.y.y.y.y.y.y.y.y.t.3.4.y.y.y.y.y.y.4.{.",
"{.,.y.y.y.y.y.y.y.<.4.y.y.y.y.y.y.y.y.y.y.y.y.y.) W Q Q Q Q Q Q Q Q Q Q Q Q Q Q ^ 7.y.y.y.y.y.y.y.y.y.y.y.4.3.y.y.y.y.y.y.y.,.{.",
"{.{.t.y.y.y.y.y.y.7.3.4.y.y.y.y.t.y.y.y.y.y.y.0.( / Q Q Q Q Q Q Q Q Q Q W Q Q Q ^ 6.y.y.y.y.y.y.t.y.y.y.5.<.y.y.y.y.y.y.y.6.{.{.",
"{.{.:.9.t.y.t.0.5.3.$.` 4.y.y.y.y.y.y.y.y.y.y.4._ 4.4.*.[ Q Q Q Q Q Q Q / Q Q W ^ 4.y.y.y.y.y.y.y.y.y.5.&.3.9.0.t.0.9.9.2.O.{.{.",
"{.{.{.^ ' [ [ [ ' Q W W ) 4.y.y.y.y.y.y.y.y.y.3.` 7.y.y.y.=.' Q Q Q Q Q Q Q Q W E 3.y.y.y.y.y.y.y.y.5._ W / ' ' ' ' ' / s {.{.{.",
"{.{.{.{.E Q Q Q Q Q Q Q Q / -.t.y.y.y.y.y.y.y.<.] t.y.y.y.y.=.Q Q / Q Q Q Q Q Q E 2.y.y.y.y.y.y.y.5.) Q Q Q Q Q Q Q Q E {.{.{.{.",
"{.{.{.{.{.s Q Q Q Q Q Q Q Q E 4.y.y.y.y.y.y.y.1.Q 9.y.0.9.*.] Q Q Q Q Q Q Q Q Q E ,.y.y.y.y.y.y.y.3.E Q Q Q Q Q Q Q E {.{.{.{.{.",
"{.{.{.{.{.{.i E Q Q Q Q Q W ^ 5.y.y.y.y.y.y.y.1.E ' [ ' Q E i u y u p E Q Q Q Q E 1.y.y.y.y.y.y.y.=.E Q Q Q W E s p {.{.{.{.{.{.",
"{.{.{.{.{.{.{.E s s E ! W W W ,.y.y.y.y.y.y.y.:.E E E E u + o . O . o + w s E Q E ,.y.y.y.y.y.y.6._ E E Q s s _ O.{.{.{.{.{.{.{.",
"{.{.{.{.3.4.5.0.2.o.W W E E W O.y.y.y.y.y.y.y.,.{.{.{.{.{.. O O . . . .   {.{.{.{.3.y.y.y.y.y.y.2.E W W Q Q =.y.y.6.5.3.{.{.{.{.",
"{...,.t.y.y.y.y.y.y.2./ W W _ 6.6.6.y.7.6.y.y.3.{.{.{.{.{.. . . . O . . {.{.{.{.{.3.y.y.y.y.y.0.4.O.W W ' 3.y.y.y.y.t.y.4.3.1.{.",
"i s / [ O.0.y.y.y.y.7.*.W E &.5.#.o.$.O.*.y.y.:.{.{.{.{.{.. . . O . . . {.{.{.{.{.2.y.y.t.#.[ ` ^ ^ a E $.6.6.y.y.y.%._ ] ^ ' W ",
"{.u E a s 2.5.3.3.<.,.O.{.{.{.` p s E i E 4.3.{.{.{.{.{.{.{.{.. . . . {.{.{.{.{.{.{.,.3.*.i s s u u {.{.{.{.{.:.,.2.E u s u a i "
};
