/* XPM */
static char *result[] = {
/* columns rows colors chars-per-pixel */
"64 64 209 2 ",
"   c #1A1D1F",
".  c #2A1D1E",
"X  c #1B1F20",
"o  c #1E2223",
"O  c #212526",
"+  c #252827",
"@  c #232728",
"#  c #252A2A",
"$  c #292E2D",
"%  c #2C2426",
"&  c #342C27",
"*  c #332D2B",
"=  c #3A2C2C",
"-  c #372A28",
";  c #2B302F",
":  c #32312D",
">  c #39302F",
",  c #2D3231",
"<  c #313634",
"1  c #3D3231",
"2  c #333836",
"3  c #363B38",
"4  c #3A3E3B",
"5  c #462F2F",
"6  c #4C2828",
"7  c #493836",
"8  c #523B3B",
"9  c #633838",
"0  c #783A3A",
"q  c #612425",
"w  c #3E423F",
"e  c #4D433C",
"r  c #574634",
"t  c #484B46",
"y  c #584B47",
"u  c #4E524E",
"i  c #565953",
"p  c #575149",
"a  c #64574D",
"s  c #735F5E",
"d  c #5F625D",
"f  c #7C664B",
"g  c #656256",
"h  c #79665B",
"j  c #6B6C67",
"k  c #7D6767",
"l  c #756A6A",
"z  c #7A6969",
"x  c #72736C",
"c  c #7C7267",
"v  c #7B7B75",
"b  c #7D7D7B",
"n  c #787471",
"m  c #894C4B",
"M  c #9C794B",
"N  c #81675F",
"B  c #89775D",
"V  c #A1605F",
"C  c #A57F4C",
"Z  c #846D67",
"A  c #996564",
"S  c #897B6A",
"D  c #947E67",
"F  c #897C78",
"G  c #957776",
"H  c #AD6460",
"J  c #AB7776",
"K  c #B06964",
"L  c #AF8752",
"P  c #AC8759",
"I  c #B88E56",
"U  c #B48C57",
"Y  c #BC9157",
"T  c #9A866B",
"R  c #878176",
"E  c #84847B",
"W  c #8C807F",
"Q  c #8C8779",
"!  c #988B7A",
"~  c #9C917D",
"^  c #AB8B62",
"/  c #A68B69",
"(  c #AE926D",
")  c #B99463",
"_  c #A28977",
"`  c #AA9579",
"'  c #B5987E",
"]  c #BB8775",
"[  c #C29559",
"{  c #CC9C5C",
"}  c #C5985A",
"|  c #D2A15F",
" . c #D5A360",
".. c #D9A662",
"X. c #DDA963",
"o. c #C9A36E",
"O. c #E0AB65",
"+. c #8B8484",
"@. c #8C8A84",
"#. c #8A8887",
"$. c #978A89",
"%. c #94948A",
"&. c #99998E",
"*. c #9B9386",
"=. c #9F9290",
"-. c #9D9D92",
";. c #A88B89",
":. c #B88887",
">. c #A69A88",
",. c #B19B82",
"<. c #BB9F84",
"1. c #AB9594",
"2. c #A29F9E",
"3. c #A69894",
"4. c #B49B9A",
"5. c #BBA485",
"6. c #BFA789",
"7. c #B4A48C",
"8. c #A2A195",
"9. c #A7A69A",
"0. c #ACAB9E",
"q. c #BDA09F",
"w. c #B7A899",
"e. c #BDB29D",
"r. c #A8A6A5",
"t. c #BDA5A3",
"y. c #B1AFA2",
"u. c #B8ACAB",
"i. c #B4B2A5",
"p. c #B7B6A9",
"a. c #B9B7AA",
"s. c #BCBAAC",
"d. c #B8B4A3",
"f. c #BEBBB3",
"g. c #B9B7B5",
"h. c #C09C82",
"j. c #C29B9A",
"k. c #C09796",
"l. c #C3AA8A",
"z. c #C7A78A",
"x. c #CBB18F",
"c. c #CEB087",
"v. c #C3AF93",
"b. c #C3A09F",
"n. c #C9A898",
"m. c #CCB491",
"M. c #CAB89B",
"N. c #D6BB95",
"B. c #C5A4A3",
"V. c #C9A5A3",
"C. c #C5A9A7",
"Z. c #CBA8A7",
"A. c #CAADAC",
"S. c #C4ADAC",
"D. c #C2B1AF",
"F. c #C3BEAC",
"G. c #C9B1AF",
"H. c #D2BEA0",
"J. c #CDB5B3",
"K. c #C1BEB2",
"L. c #CABEBC",
"P. c #C6B8B7",
"I. c #D2BCBA",
"U. c #DCC29B",
"Y. c #E2C69E",
"T. c #E4C89F",
"R. c #CEC3AD",
"E. c #DBC6A4",
"W. c #D2C0A5",
"Q. c #C5C3B5",
"!. c #C8C6B6",
"~. c #C9C7B9",
"^. c #CDCBBC",
"/. c #DCCEB3",
"(. c #D2CEBD",
"). c #D3C7B5",
"_. c #DFD1B6",
"`. c #E5CBA3",
"'. c #EBCEA4",
"]. c #E2CEAC",
"[. c #EDD1A6",
"{. c #ECD2AA",
"}. c #F1D3A7",
"|. c #F3D5A8",
" X c #F7D8AB",
".X c #E4D3B4",
"XX c #E4D8BE",
"oX c #CFC6C4",
"OX c #D8C6C5",
"+X c #D2CDC2",
"@X c #DBCECC",
"#X c #D6C9C7",
"$X c #D5D2C2",
"%X c #DAD6C4",
"&X c #DBD9C7",
"*X c #DCD1CD",
"=X c #DDDACA",
"-X c #D4D1CF",
";X c #DDD2D0",
":X c #E1DECC",
">X c #E6DDC7",
",X c #E4E0CE",
"<X c #E6E3D1",
"1X c #E9E6D3",
"2X c #ECE9D7",
"3X c #EEEBD8",
"4X c #E6E1DF",
"5X c #F0EDDA",
"6X c None",
/* pixels */
"6X6X6X6X6X6X6X6X6X6X6X6X6X6X6X6X6X6X6X6X6X6X6X6X6X6X6X6X6X .} [ Y { [ 6X6X6X6X6X6X6X6X6X6X6X6X6X6X6X6X6X6X6X6X6X6X6X6X6X6X6X6X6X",
"6X6X6X6X6X6X6X6X6X6X6X6X6X6X6X6X6X6X6X6X6X6X6X6X6X .X.X...| ....X.| ..X.X.X.6X6X6X6X6X6X6X6X6X6X6X6X6X6X6X6X6X6X6X6X6X6X6X6X6X6X",
"6X6X6X6X6X6X6X6X6X6X6X6X6X6X6X6X6X6X6X6X6X6X6X|  .....| I U [ X.{ L U X.X.X.X. .6X6X6X6X6X6X6X6X6X6X6X6X6X6X6X6X6X6X6X6X6X6X6X6X",
"6X6X6X6X6X6X6X6X6X6X6X6X6X6X6X6X6X6X6X6X6XL { { { [ P T / ( ^ o.^ ( ( P Y { { X.{ 6X6X6X6X6X6X6X6X6X6X6X6X6X6X6X6X6X6X6X6X6X6X6X",
"6X6X6X6X6X6X6X6X6X6X6X6X6X6X6X6X6X6X6X6X6XY Y Y ) c.W.6.v.U.N.T.U.M.>.7./ U } | | 6X6X6X6X6X6X6X6X6X6X6X6X6X6X6X6X6X6X6X6X6X6X6X",
"6X6X6X6X6X6X6X6X6X6X6X6X6X6X6X6X6X6X6X6X6X6Xf ` m.{.}.[.{.{.'.'.}.'.`.{.Y./ M M C 6X6X6X6X6X6X6X6X6X6X6X6X6X6X6X6X6X6X6X6X6X6X6X",
"6X6X6X6X6X6X6X6X6X6X6X6X6X6X6X6X6X6X6X6X6X6X6XB ` Y.|.U.h h h N h m. X[.m.` N r 6X6X6X6X6X6X6X6X6X6X6X6X6X6X6X6X6X6X6X6X6X6X6X6X",
"6X6X6X6X6X6X6X6X6X6X6X6X6X6X6X6X6X6X6X6X6X6X6X6X6XT N.T.' H K ] 5.T.c.T T 6X6X6X6X6X6X6X6X6X6X6X6X6X6X6X6X6X6X6X6X6X6X6X6X6X6X6X",
"6X6X6X6X6X6X6X6X6X6X6X6X6X6X6X6X6X6X6X6X6X6X6X6X6X! 5.' 5.' l.6.l.v.~ 6X6X6X6X6X6X6X6X6X6X6X6X6X6X6X6X6X6X6X6X6X6X6X6X6X6X6X6X6X",
"6X6X6X6X6X6X6X6X6X6X6X6X6X6X6X6X6X6X6X6X6X6X6XQ.1X&XQ.Q h Z ~ !._.,X<X:Xi.6X6X6X6X6X6X6X6X6X6X6X6X6X6X6X6X6X6X6X6X6X6X6X6X6X6X6X",
"6X6X6X6X6X6X6X6X6X6X6X6X6X6X6X6X6Xs.(.=X<X=Xs.0.%X(.K.u 2 e E (.<X<X$X~.^.$X^.~.^.^.,X:X$X^.$X6X6X6X6X6X6X6X6X6X6X6X6X6X6X6X6X6X",
"6X6X6X6X6X6X6X6X6X6X6X6Xa.s.1X1X:X&X=X,X1X2X2XR.W.d.K.u , -.2X2X=X,X<X,X,X,X<X<X$X$X:X$X=X<X2X<X6X6X6X6X6X6X6X6X6X6X6X6X6X6X6X6X",
"6X6X6X6X6X6X6X6X6X6Xi.+X+X!.5X3X3X3X3X3XXX_.,X&XU.U.d # t ^.$X&X<X2X3X2X2X3X=X,X~.$X$X1X3X3X3X3X<X6X6X6X6X6X6X6X6X6X6X6X6X6X6X6X",
"6X6X6X6X6X6X6X6X6X&Xs.%X=X0.,X3X3X2X2X2X<X_.E.R.e.m.` d g Q.$X$X=X,X<X2X2X2X^.s.~.^.3X3X3X2X1X,X,Xa.6X6X6X6X6X6X6X6X6X6X6X6X6X6X",
"6X6X6X6X6X6X6X6X=X3X,X!.!.&.!.&X2X2X2X2X3X1XR.U.5.m.T.x.6.E./.:X,X<X<X<X<X<XQ.8.i.:X3X3X3X2X=X^.s.%.6X6X6X6X6X6X6X6X6X6X6X6X6X6X",
"6X6X6X6X6X6X=Xs.(.=X<X$XQ.-.&.&X3X2X3X2X2X2X(.' ' x.x.T 6.[.`.^.2X2X2X:X=X<X=Xi.f.^.1X<X,X,X<X2X3X~.6X6X6X6X6X6X6X6X6X6X6X6X6X6X",
"6X6X6X=Xa.a.<X=XQ.^.^.~.i.-.E (.5X3X3X2X2X5X9.w d ` m.x.m.`.[.`..X>X1X3X<X$X^.!.&X$X^.Q.s.a.i.a.:X:X6X6X6X6X6X6X6X6X6X6X6X6X6X6X",
"6X6Xs.1X=Xa.$X=XQ.$X:X%X^.9.E Q.3X2X2X2X3X=Xu $ ; , t F.R.M.U.[.}.[.{..XXX>X(.&X<X:X:X=X=X$X^.!.Q.!.6X6X6X6X6X6X6X6X6X6X6X6X6X6X",
"6X$X^.&X<X$X^.Q.^.(.F.0.8.&.E i.5X2X2X3X5X8., , , ; d <X5X2X:XXX.X[.|.|.}.[.`.]././._./.).(.^.^.+X$X-.6X6X6X6X6X6X6X6X6X6X6X6X6X",
"m.W.R.(.(.(.~.~.~.Q.y.&.E E E Q.1X1X1X1X=Xi ; , , ; %.5X3X2X3X3X1X:X.XE.'.}.|. X|.|.|.[.'.`.N.w.i.8.6X6X6X6X6X6X6X6X6X6X6X6X6X6X",
"<.`.`.x.,._ ! S 6XE E E E 6X6X!.$X,X<X2Xy., , , ; w F.5X3X3X3X3X3X3X2X^.>.7.m.N.Y.'.'.}.|.|.}.Y.! v 6X6X6X6X6X6X6X6X6X6X6X6X6X6X",
"6Xm.}.|.}.'.'.m.6X6X6X6X6X6X6X8.0.s.^.:Xv $ , , ; u =X<X,X1X1X2X1X,X(.i.y.9.@.Q S _ ` ' <.x.x.<.R 6X6X6X6X6X6X6X6X6X6X6X6X6X6X6X",
"6X6X`.}.|.|.|.|.U.6X6X6X6X6Xi.9.i.Q.^.$Xj ; ; ; 2 v ^.(.&X,X1X1X1X=X&X%X$X(.(.^.-.6X6X6X6X6X6X6X6X6X6X6X6X6X6X6X6X6X6X6X6X6X6X6X",
"6X6X6X6X'.|.|.|.{.6X6X6X6X6Xi.Q.s.s.f.$XQ.x t d %.Q.(.$X&X,X1X3X3X3X3X3X2X2X1X<X!.6X6X6X6X6X6X6X6X6X6X6X6X6X6X6X6X6X6X6X6X6X6X6X",
"6X6X6X6X6X`.[.|.|.T.6X6X6X6X& 7 u g c Q *.8.8.9.d.F.Q.Q.^.(.=X,X2X3X5X:X^.Q.a.s.6X6X6X6X6X6X6X6X6X6X6X6X6X6X6X6X6X6X6X6X6X6X6X6X",
"6X6X6X6X6X6X6XN.[.|.N.l.6XO X o ; ; : & & e j x x e e e e a h x R *.w.!.$X%X^.$X6X6X6X6X6X6X6X6X6X6X6X6X6X6X6X6X6X6X6X6X6X6X6X6X",
"6X6X6X6X6X6X6X6X' m.Y.Y.5.@ , 2 < < < < ; # < w w < : : : : & : : : * < t t w 6X6X6X6X6X6X6X6X6X6X6X6X6X6X6X6X6X6X6X6X6X6X6X6X6X",
"6X6X6X6X6X6X6X6X6XT U.m.T O ; , w , w < < < < < ; 2 2 2 2 < < < < 2 , ; $ ; < ; 6X6X6X6X6X6X6X6X6X6X6X6X6X6X6X6X6X6X6X6X6X6X6X6X",
"6X6X6X6X6X6X6X6X6X6X5.l.S O # , , < < , , ; , 2 ; < ; < < < 2 < 2 2 2 2 < < < ; 6X6X6X6X6X6X6X6X6X6X6X6X6X6X6X6X6X6X6X6X6X6X6X6X",
"6X6X6X6X6X6X6X6X6X6X6XD a + , , < < , w < ; ; < < < 2 2 2 < 2 2 < < 2 2 < < ; $ + 6X6X6X6X6X6X6X6X6X6X6X6X6X6X6X6X6X6X6X6X6X6X6X",
"6X6X6X6X6X6X6X6X6X6X6X7 * o o # # # # ; ; $ o ; $ # ; ; ; ; ; ; , , < < < < , ; $ 6X6X6X6X6X6X6X6X6X6X6X6X6X6X6X6X6X6X6X6X6X6X6X",
"6X6X6X6X6X6X6X6X6X6X6X6Xo o o , , ; # # + o X o o + $ ; ; < < ; , , $ $ $ < 2 2 < + 6X6X6X6X6X6X6X6X6X6X6X6X6X6X6X6X6X6X6X6X6X6X",
"6X6X6X6X6X6X6X6X6X6X6X6Xo o o , 2 2 < , $ O o o o X o o O # , < < 2 2 2 < 2 2 2 < < $ 6X6X6X6X6X6X6X6X6X6X6X6X6X6X6X6X6X6X6X6X6X",
"6X6X6X6X6X6X6X6X6X6X6X6Xo o O < 2 2 < 2 , $ $ $ o o 6X6Xo O < 2 < < < 2 < < 2 2 2 2 < 6X6X6X6X6X6X6X6X6X6X6X6X6X6X6X6X6X6X6X6X6X",
"6X6X6X6X6X6X6X6X6X6X6X6Xo o O 2 2 < $ $ $ < 2 2 $ o 6X6X6Xo # < 2 2 2 2 < < 2 2 2 2 2 , 6X6X6X6X6X6X6X6X6X6X6X6X6X6X6X6X6X6X6X6X",
"6X6X6X6X6X6X6X6X6X6X6X6Xo o O , # @ , < 2 2 2 2 2 # 6X6X6X6XX $ 2 2 2 2 2 < < < 2 2 2 < ; 6X6X6X6X6X6X6X6X6X6X6X6X6X6X6X6X6X6X6X",
"6X6X6X6X6X6X6X6X6X6X6X6XX o o O $ , < 2 2 2 2 2 2 ; 6X6X6X6X6X6X$ 2 2 2 2 < < ; < 2 2 2 < 6X6X6X6X6X6X6X6X6X6X6X6X6X6X6X6X6X6X6X",
"6X6X6X6X6X6X6X6X6X6X6X6X6Xo X $ $ $ 2 2 2 2 2 2 2 ; 6X6X6X6X6X6X6X; 2 2 2 2 < ; $ < 2 2 2 < 6X6X6X6X6X6X6X6X6X6X6X6X6X6X6X6X6X6X",
"6X6X6X6X6X6X6X6X6X6X6X6X6Xo o O @ < 2 2 2 2 2 2 2 6X6X6X6X6X6X6X6X6X, 2 2 2 2 2 < , < 2 2 2 ; 6X6X6X6X6X6X6X6X6X6X6X6X6X6X6X6X6X",
"6X6X6X6X6X6X6X6X6X6X6X6X6XX o o # 2 2 2 2 2 2 2 < 6X6X6X6X6X6X6X6X6X6X< < 2 2 2 2 < < 2 2 2 < 6X6X6X6X6X6X6X6X6X6X6X6X6X6X6X6X6X",
"6X6X6X6X6X6X6X6X6X6X6X6X6X6Xo o , < 2 2 2 2 2 2 2 6X6X6X6X6X6X6X6X6X6X6X6X2 2 2 2 2 2 < 2 2 2 < 6X6X6X6X6X6X6X6X6X6X6X6X6X6X6X6X",
"6X6X6X6X6X6X6X6X6X6X6X6X6X6Xo O < 2 2 2 2 2 2 2 2 6X6X6X6X6X6X6X6X6X6X6X6X6X$ < 2 2 2 < < 2 2 2 $ 6X6X6X6X6X6X6X6X6X6X6X6X6X6X6X",
"6X6X6X6X6X6X6X6X6X6X6X6X6X6X  # 2 2 2 2 2 2 , ; , 6X6X6X6X6X6X6X6X6X6X6X6X6X6X, < < 2 2 < < 2 2 # 6X6X6X6X6X6X6X6X6X6X6X6X6X6X6X",
"6X6X6X6X6X6X6X6X6X6X6X6X6X6X  $ 2 2 2 2 2 < , ; # 6X6X6X6X6X6X6X6X6X6X6X6X6X6X; ; < 2 2 2 2 2 2 , $ $ 6X6X6X6X6X6X6X6X6X6X6X6X6X",
"6X6X6X6X6X6X6X6X6X6X6X6X6X6X6Xo # , 2 2 2 , $ # # O 6X6X6X6X6X6X6X6X6X6X6X6X6X6X+ ; 2 < 2 2 2 2 2 < $ 6X6X6X6X6X6X6X6X6X6X6X6X6X",
"6X6X6X6X6X6X6X6X6X6X6X6X6X6X6X6XX o ; 2 2 2 2 2 , # 6X6X6X6X6X6X6X6X6X6X6X6X6X6X6XO $ < 2 2 2 2 2 < ; O 6X6X6X6X6X6X6X6X6X6X6X6X",
"6X6X6X6X6X6X6X6X6X6X6X6X6X6X6X6XX X ; 2 < $ ; < 2 2 6X6X6X6X6X6X6X6X6X6X6X6X6X6X6X6Xo @ < 2 2 < < < 2 < $ 6X6X6X6X6X6X6X6X6X6X6X",
"6X6X6X6X6X6X6X6X6X6X6X6X6X6X6X6XX o < 2 < # # , < < 6X6X6X6X6X6X6X6X6X6X6X6X6X6X6X6X6Xo < 2 2 2 < < 2 < < 6X6X6X6X6X6X6X6X6X6X6X",
"6X6X6X6X6X6X6X6X6X6X6X6X6X6X6X6X6X+ < 2 2 , # < 2 2 $ 6X6X6X6X6X6X6X6X6X6X6X6X6X6X6X6X6X# 2 2 2 < < < < 2 < 6X6X6X6X6X6X6X6X6X6X",
"6X6X6X6X6X6X6X6X6X6X6X6X6X6X6X6X6X@ 2 2 2 2 ; $ < 2 < 6X6X6X6X6X6X6X6X6X6X6X6X6X6X6X6X6XX @ , 2 2 2 < < 2 2 , 6X6X6X6X6X6X6X6X6X",
"6X6X6X6X6X6X6X6X6X6X6X6X6X6X6X6X6X@ 2 2 < ; 2 ; # < , 6X6X6X6X6X6X6X6X6X6X6X6X6X6X6X6X6X6XX o ; 2 < < , < < < 6X6X6X6X6X6X6X6X6X",
"6X6X6X6X6X6X6X6X6X6X6X6X6X6X6X6X6X$ ; # @ ; 2 2 $ @ $ 6X6X6X6X6X6X6X6X6X6X6X6X6X6X6X6X6X6X6XX o $ < < < < , ; o 6X6X6X6X6X6X6X6X",
"6X6X6X6X6X6X6X6X6X6X6X6X6X6X6X6XX O @ $ 2 2 2 2 2 , o 6X6X6X6X6X6X6X6X6X6X6X6X6X6X6X6X6X6X6X6XX O @ $ < < , < $ 6X6X6X6X6X6X6X6X",
"6X6X6X6X6X6X6X6X6X6X6X6X6X6X6X6X$ ; ; $ # # $ ; , , @ 6X6X6X6X6X6X6X6X6X6X6X6X6X6X6X6X6X6X6X6XX o @ < 2 < < , , # O 6X6X6X6X6X6X",
"6X6X6X6X6X6X6X6X6X6X6X6X6X6X6X6X6XO # $ # # @ o o o # # 6X6X6X6X6X6X6X6X6X6X6X6X6X6X6X6X6X6X6Xo @ , $ # # # @ # @ o 6X6X6X6X6X6X",
"6X6X6X6X6X6X6X6X6X6X6X6X6X6X6X9 8 = # # , 1 1 > = = 1 - 6X6X6X6X6X6X6X6X6X6X6X6X6X6X6X6X6X6X6X# ; $ # # , , @ o o o o 6X6X6X6X6X",
"6X6X6X6X6X6X6X6X6X6X6X6X6X6Xl =.D.m . o q J C.q.q.t.t.6X6X6X6X6X6X6X6X6X6X6X6X6X6X6X6X6X6X6X6X6X6X. o % * * > 1 7 8 5 5 6X6X6X6X",
"6X6X6X6X6X6X6X6X6X6X6X6X6X6Xx v #.G 0 6 0 1.g.r.r.2.#.6X6X6X6X6X6X6X6X6X6X6X6X6X6X6X6X6X6X6X6X6X6X6 % 6 J t.C.D.J.oXJ 9 6X6X6X6X",
"6X6X6X6X6X6X6X6X6X6X6X6X6X$.n s E W =.1.L.P.1.4.1.u.g.6X6X6X6X6X6X6X6X6X6X6X6X6X6X6X6X6X6X6X6X6X6X6X8 7 V #XoXg.r.r.G m 6X6X6X6X",
"6X6X6X6X6X6X6X6Xk ;.$.G K V 1.A.oXg.L.-X4XOX:.I.j.B.C.6X6X6X6X6X6X6X6X6X6X6X6X6X6X6X6X6X6X6X6X6X6X6X6Xn ;.=.#.b +.b F F @.6X6X6X",
"6X6X6X6X6Xl #.2.@X;X;X@XoXV.k.B.j.:.Z.I.I.L.Z.j.4.V.:.6X6X6X6X6X6X6X6X6X6X6X6X6X6X6X6X6X6X6X6X6X6X6X6X6X+.Z A 1.3.=.=.A J ;.6X6X",
"6X6X6X6X6Xp l +.S.J.J.A.S.C.B.B.C.b.B.D.S.G.P.L.oX6X6X6X6X6X6X6X6X6X6X6X6X6X6X6X6X6X6X6X6X6X6X6X6X6X6X6Xy k 4.oXL.J.J.OX;X@X#Xu.",
"6X6X6X6X6X6X6Xl G t.u.D.6X6X6X6X6X6X6X6X6X6X6X6X6X6X6X6X6X6X6X6X6X6X6X6X6X6X6X6X6X6X6X6X6X6X6X6X6X6X6X6X6Xl W I.@X:X;X@X@XOXI.;.",
"6X6X6X6X6X6X6X6X6X6X6X6X6X6X6X6X6X6X6X6X6X6X6X6X6X6X6X6X6X6X6X6X6X6X6X6X6X6X6X6X6X6X6X6X6X6X6X6X6X6X6X6X6X6Xk 4.V.j.b.Z.Z.Z.A.4."
};
