/* XPM */
static char *result[] = {
/* columns rows colors chars-per-pixel */
"64 64 226 2 ",
"   c #1D160A",
".  c #1C1609",
"X  c #241B0B",
"o  c #291D0D",
"O  c #20170C",
"+  c #2C1D12",
"@  c #321E12",
"#  c #2E220E",
"$  c #33260F",
"%  c #2F2410",
"&  c #342212",
"*  c #362910",
"=  c #3C2D12",
"-  c #3C2615",
";  c #3F3012",
":  c #442B15",
">  c #462B1A",
",  c #4D2C19",
"<  c #452715",
"1  c #532C15",
"2  c #443314",
"3  c #4C3915",
"4  c #45351B",
"5  c #4D3B1A",
"6  c #4A3517",
"7  c #513C16",
"8  c #53311A",
"9  c #5B331C",
"0  c #533E18",
"q  c #5C3715",
"w  c #63361E",
"e  c #67391A",
"r  c #773A1D",
"t  c #583420",
"y  c #453826",
"u  c #643A22",
"i  c #6F3C22",
"p  c #7A3E22",
"a  c #773F21",
"s  c #5D4116",
"d  c #55411B",
"f  c #5B441A",
"g  c #5E4B1A",
"h  c #574A1F",
"j  c #644A1D",
"k  c #6A4C1C",
"l  c #674517",
"z  c #734C1A",
"x  c #6B511D",
"c  c #64531E",
"v  c #7B531C",
"b  c #79561C",
"n  c #7A661D",
"m  c #584726",
"M  c #5D4B33",
"N  c #5E5138",
"B  c #6D4D21",
"V  c #644C27",
"C  c #794824",
"Z  c #6D5627",
"A  c #745321",
"S  c #7C5C21",
"D  c #775825",
"F  c #79652D",
"G  c #7A6434",
"H  c #5E5041",
"J  c #645548",
"K  c #786A47",
"L  c #726A54",
"P  c #8F3C22",
"I  c #835C1D",
"U  c #845D17",
"Y  c #8B641C",
"T  c #87641F",
"R  c #95771E",
"E  c #AD7F1F",
"W  c #884926",
"Q  c #924A25",
"!  c #825E22",
"~  c #99552D",
"^  c #8F5935",
"/  c #A5592E",
"(  c #B35F2D",
")  c #AD4C26",
"_  c #8D6925",
"`  c #866525",
"'  c #946C24",
"]  c #976327",
"[  c #967425",
"{  c #9C7B26",
"}  c #94732B",
"|  c #9C742A",
" . c #9A7827",
".. c #8A7438",
"X. c #997934",
"o. c #896C35",
"O. c #A46526",
"+. c #A37C2C",
"@. c #A87B28",
"#. c #A96833",
"$. c #B97B36",
"%. c #B07236",
"&. c #C47A39",
"*. c #83714A",
"=. c #AA794D",
"-. c #A7861F",
";. c #9D813D",
":. c #AD8525",
">. c #AB8D24",
",. c #A4822A",
"<. c #AC832A",
"1. c #A78A2A",
"2. c #B58A28",
"3. c #AE9428",
"4. c #B3932B",
"5. c #B89629",
"6. c #AC8B33",
"7. c #A78838",
"8. c #B58B36",
"9. c #AB9336",
"0. c #B49233",
"q. c #B59A3C",
"w. c #B89A37",
"e. c #BBA438",
"r. c #CA8B39",
"t. c #C39A37",
"y. c #C28C2D",
"u. c #C3A42C",
"i. c #C6AB2F",
"p. c #C8AA29",
"a. c #D2BC2C",
"s. c #C6A839",
"d. c #CCB535",
"f. c #D2BB36",
"g. c #D2BC3B",
"h. c #CDAE33",
"j. c #DBCA3B",
"k. c #D7C539",
"l. c #9D8546",
"z. c #AE8F40",
"x. c #A9934A",
"c. c #BB9C43",
"v. c #B59D43",
"b. c #B29C56",
"n. c #BCA649",
"m. c #BCA655",
"M. c #998767",
"N. c #B59D64",
"B. c #A89767",
"V. c #CA8641",
"C. c #CA9748",
"Z. c #C99D5A",
"A. c #C6A944",
"S. c #CBB746",
"D. c #D3B846",
"F. c #C4A75C",
"G. c #C8B458",
"H. c #D1BA58",
"J. c #DAA451",
"K. c #E3B35B",
"L. c #C9B767",
"P. c #D2BE66",
"I. c #CEA676",
"U. c #C7B774",
"Y. c #C9AC6B",
"T. c #E3BB67",
"R. c #DCCD44",
"E. c #D9C547",
"W. c #DFD14A",
"Q. c #DAC553",
"!. c #DAC758",
"~. c #E2D349",
"^. c #E4CB59",
"/. c #E8D85A",
"(. c #E0CD44",
"). c #EDE15D",
"_. c #D8C66B",
"`. c #DBCB7B",
"'. c #D6C476",
"]. c #E5CA67",
"[. c #E7D867",
"{. c #E9D975",
"}. c #EDC871",
"|. c #EEE267",
" X c #F2E469",
".X c #F2E573",
"XX c #F6E979",
"oX c #EEE073",
"OX c #B8B49B",
"+X c #BEBDBC",
"@X c #CBBB84",
"#X c #C1B481",
"$X c #D6B987",
"%X c #C1BEAD",
"&X c #D8C786",
"*X c #DDD295",
"=X c #DCCE90",
"-X c #E4C78A",
";X c #E6D887",
":X c #E5D897",
">X c #F1D58C",
",X c #ECE088",
"<X c #F5EA85",
"1X c #F6EB87",
"2X c #FBF18C",
"3X c #ECE297",
"4X c #F4E897",
"5X c #FBF299",
"6X c #CAC2A5",
"7X c #E3D7A3",
"8X c #E7D7AD",
"9X c #F5EBA6",
"0X c #FDF6A2",
"qX c #FCF6AB",
"wX c #EEE7B6",
"eX c #F5EBB6",
"rX c #FBF7B8",
"tX c #EBE5A3",
"yX c #E3DBD0",
"uX c #F6E9C7",
"iX c #FAF7C8",
"pX c #FDFBDD",
"aX c #FCFAD2",
"sX c #EAE2CA",
"dX c #FCF9E6",
"fX c None",
/* pixels */
"fXfXfXfXfXfXfXfXfXfXfXfXfXfXfXfXfXfXfXfXfXfXfXfXfXfXfXfXfXfXfXfXfXfXfXfXfXfXfXfXfXfXfXfXfXfXfXfXfXfXfXfXfXfXfXfXfXfXfXfXfXfXfXfX",
"fXfXfXfXfXfXfXfXfXfXfXfXfXfXfXfXfXfXfXfXfXfXfXfXfXfXfXfXfXfXfXfXfXfXfXfXfXfXfXfXfXfXfXfXfXfXfXfXfXfXfXfXfXfXfXfXfXfXfXfXfXfXfXfX",
"fXfXfXfXfXfXfXfXfXfXfXfXfXfXfXfXfXfXfXfXfXfXfXfXfXfXfXfXfXfXfXfXfXfXfXfXfXfXfXfXfXfXfXfXfXfXfXfXfXfXfXfXfXfXfXfXfXfXfXfXfXfXfXfX",
"fXfXfXfXfXfXfXfXfXfXfXfXfXfXfXfXfXfXfXfXfXfXfXfXfXfXfXfXfXfXfXfXfXfXfXfXfXfXfXfXfXfXfXfXfXfXfXfXfXfXfXfXfXfXfXfXfXfXfXfXfXfXfXfX",
"fXfXfXfXfXfXfXfXfXfXfXfXfXfXfXfXfXfXfXfXfXfXfXfXfXfXfXfXfXfXfXfXfXfXfXfXfXfXfXfXfXfXfXfXfXfXfXfXfXfXfXfXfXfXfXfXfXfXfXfXfXfXfXfX",
"fXfXfXfXfXfXfXfXfXfXfXfXfXfXfXfXfXfXfXfXfXfXfXfXfXfXfXfXfXfXfXfXfXfXfXfXfXfXfXfXfXfXfXfXfXfXfXfXfXfXfXfXfXfXfXfXfXfXfXfXfXfXfXfX",
"fXfXfXfXfXfXfXfXfXfXfXfXfXfXfXfXfXfXfXfXfXfXfXfXfXfXfXfXfXfXfXfXfXfXfXfXfXfXfXfXfXfXfX$XfXfXfXfXfXfXfXfXfXfXfXfXfXfXfXfXfXfXfXfX",
"fXfXfXfXfXfXfXfXfXfXfXfXfXfXfXfXfXfXfXfXfXfXfXfXfXfXfXfXfXfXfXfXfXfXfXfXfXfXfXb.x.L.>XuXuXI.fXfXfXfXfXfXfXfXfXfXfXfXfXfXfXfXfXfX",
"fXfXfXfXfXfXfXfXfXfXfXfX*X$X7X:XfXfXfXfXfXfXfXfXfXfXfXfXfXfXfXfXfXfXfXfXl.l.X.7.A.^.4XeXpX-XfXfXfXfXfXfXfXfXfXfXfXfXfXfXfXfXfXfX",
"fXfXfXfXfXfXfXfXL.L.m.m.F.&XuXdXwXZ.fXfXfXfXfXfXfXfXfXfXfXfXfXfXfXfX` o.o.X.9.A.D.D. X>XaXI.C fXfXfXfXfXfXfXfXfXfXfXfXfXfXfXfXfX",
"fXfXfXfXfXfXfXq.e.3.>.>.@.$.C.-XuX$XfXfXfXfXfXfXfXfXfXfXfXfXfXfXV B B ! +.8.t.s.E.|.XX9X7X^ t fXfXfXfXfXfXfXfXfXfXfXfXfXfXfXfXfX",
"fXfXfXfXfXfX..m.G.e.5.3.O.( y.T.wXI.p fXfXfXfXfXfXfXfXfXfXfXo.A B C ` X.0.t.D.[.XXXX].I.^ < fXfXfXfXfXfXfXfXfXfXfXfXfXfXfXfXfXfX",
"fXfXfXfXfXfX4 $ $ $ # * - < r %.F.r.] fXfXfXfXfXfXfXfXfX6.` Z A ] ' <.t.Q.[.[..X].D.,.C , + fXfXfXfXfXfXfXfXfXfXfXfXfXfXfXfXfXfX",
"fXfXfXfXfXfXfXX X X X # & @ & 8 W C.$.fXfXfXfXfXfXfXfXfX4.} : c t.s.Q..X1X<X^.A.8.%.,.O.p > fXfXfXfXfXfXfXfXfXfXfXfXfXfXfXfXfXfX",
"fXfXfXfXfXfXfX= # # # * : < , 9 W #.fXfXfXfXfXfXfXfXfXfXfX0.j c /..X2X<X].D.8.<.2.u.f.r.( fXfXfXfXfXfXfXfXfXfXfXfXfXfXfXfXfXfXfX",
"fXfXfXfXfXfXfXfXfX2 2 2 2 < , w a i fXfXfXfXfXfXfXfXfXfXfXS.9.h [.{.^.A.s.d.w.2.2.<.' fXfXfXfXfXfXfXfXfXfXfXfXfXfXfXfXfXfXfXfXfX",
"fXfXfXfXfXfXfXfXfXfXfXfXfX8 t u fXfXfXfXfXfXfXfXfXfXfXfXfX!.G.m 9.s.A.E.(.h.,.S k d fXfXfXfXfXfXfXfXfXfXfXfXfXfXfXfXfXfXfXfXfXfX",
"fXfXfXfXfXfXfXfXfXfXfXfXfXfXfXfXfXfXfXfXfXfXfXfXfXfXfXfXfXv.q.h X.]. XR.0.! V 6 fXfXfXfXfXfXfXfXfXfXfXfXfXfXfXfXfXfXfXfXfXfXfXfX",
"fXfXfXfXfXfXfXfXfXfXfXfXfXfXfXfXfXfXfXfXfXfXfXfXfXfXfXfXfX} v...x.{.A._ j 6 fXfXfXfXfXfXfXfXfXfXfXfXfXfXfXfXfXfXfXfXfXfXfXfXfXfX",
"fXfXfXfXfXfXfXfXfXfXfXfXfXfXfXfXfXfXfXfXfXfXfXfXfXfXfXfXfXfX_.7.} ,.B 5 fXfXfXfXfXfXfXfXfXfXfXfXfXfXfXfXfXfXfXfXfXfXfXfXfXfXfXfX",
"fXfXfXfXfXfXfXfXfXfXfXfXfXfXfXfXfXfXfXfXfXfXfXfXfXfXfXfXfXfXn.Z Z h fXfXfXfXfXfXfXfXfXfXfXfXfXfXfXfXfXfXfXfXfXfXfXfXfXfXfXfXfXfX",
"fXfXfXfXfXfXfXfXfXfXfXfXfXfXfXfXfXfXfXfXfXfXfXfXfXfXfXfXfXfXF m fXfXfXfXfXfXfXfXfXfXfXfXfXfXfXfXfXfXfXfXfXfXfXfXfXfXfXfXfXfXfXfX",
"fXfXfXfXfXfXfXfXfXfXfXfXfXfXfXfXfXfXfXfXfXfXfXfXfXfXfXfXfXfXfXfXfXfXfXfXfXfXfXfXfXfXfXfXfXfXfXfXfXfXfXfXfXfXfXfXfXfXfXfXfXfXfXfX",
"fXfXfXfXfXfXfXfXfXfXfXfXfXfXfXfXfXfXfXfXfXfXfXfXfXfXfXfXfXfXfXfXfXfXfXfXfXfXfXfXfXfXfXfXfXfXfXfXfXfXfXfXfXfXfXfXfXfXfXfXfXfXfXfX",
"fXfXfXfXfXfXfXfXfXfXfXfXfXfXfXfXd L 6XfXfXfXfXfXfXfXfXfXfXfXfXfXfXfXfXfXfXfXfXfXfXfXfXfXfXfXfXfXfXfXfXfXfXfXfXfXfXfXfXfXfXfXfXfX",
"fXfXfXfXfXfXfXfXfXfXfXfXfXfXfXG m V H OXfXfXfXfXfXfXfXfXfXfXfXfXfXfXfXfXfXfXfXfXfXfXfXfXfXfXfXfXfXfX3XfXfXfXfXfXfXfXfXfXfXfXfXfX",
"fXfXfXfXfXfXfXfXfXfXfXfXfXfXm.9XsXB.*.K x.fXfXfXfXfXfXfXfXfXfXfXfXfXfXfXfXfXfXfXfXfXfXfXfXfXfXfXrXiXwXeXfXfXfXfXfXfXfXfXfXfXfXfX",
"fXfXfXfXfXfXfXfXfXfXfXfXfXfX3XiXiXuXM.Z 3 fXfXfXfXfXfXfXfXfXfXfXfXfXfXfXfXfXfXfXfXfXfXfXfXfXfXU.=X*X=X7XfXfXfXfXfXfXfXfXfXfXfXfX",
"fXfXfXfXfXfXfXfXfXfXfXfXfX`.rX0X5XaX7Xm # = fXfXfXfXfXfXfXfXfXfXfXfXfXfXfXfXfXfXfXfXfXfXfX'.B.N L U.=XL.fXfXfXfXfXfXfXfXfXfXfXfX",
"fXfXfXfXfXfXfXfXfXfXfXfXU.5XqX0XqXpX;XB $ l fXfXfXfXfXfXfXfXfXfXfXfXfXfXfXfXfXfXfXfXfXfXfXm.L +X6XL.=X..fXfXfXfXfXfXfXfXfXfXfXfX",
"fXfXfXfXfXfXfXfXfXfXfXfX;X5XqX2XrXrX7.q : n fXfXfXfXfXfXfXfXfXfXfXfXfXfXfXfXfXfXfXfXfXfX'.N.yXdX@X`.N.l 6.fXfXfXfXfXfXfXfXfXfXfX",
"fXfXfXfXfXfXfXfXfXfXfX`.<XqX5X5XaX`.D v s f fXfXfXfXfXfXfXfXfXfXfXfXfXfXfXfXfXfXfXfXfXL.G.yXdX*XP._.[ e q.d.fXfXfXfXfXfXfXfXfXfX",
"fXfXfXfXfXfXfXfXfXfXL._.1X0X2XrXwX+.v u.{ fXfXfXfXfXfXfXfXfXfXfXfXfXfXfXfXfXfXfXfXfXm.L.#XsX@Xn.!.d._ F Q.S.fXfXfXfXfXfXfXfXfXfX",
"fXfXfXfXfXfXfXfXfXfXH.[.4X1X2XiXF.v -.a.5.fXfXfXfXfXfX-XfXfXfXfXfXfXfXfXfXfXfXfXfXfXe.n.G.G.n.e.[.E.n OX3Xn.1.fXfXfXfXfXfXfXfXfX",
"fXfXfXfXfXfXfXfXfXG.Q.2X5X,X9X:X! R a.3.fXfXfXfXfXfX=.$XwX&XfXfXfXfXfXfXfXfXfXfXfXfX9.3.3.w.1.3.[.n.e.eXwXo.[ fXfXfXfXfXfXfXfXfX",
"fXfXfXfXfXfXfXfXm.A..X2X<X1X:X8.Y p.5.A fXfXfXfXfXp z C.9XaX`.A.fXfXfXfXfXfXfXfXfXfX1.>.1.F x [ e.S.[.9X@Xe b fXfXfXfXfXfXfXfXfX",
"fXfXfXfXfXfXfXb.z.^.XXXX.X5XP.| u.u.z fXfXfXfXfXfXC.] [ P.rXaXU.e.fXfXfXfXfXfXfXfXfX1.F g 3 f s b G.{.{.9.q q -.fXfXfXfXfXfXfXfX",
"fXfXfXfXfXfXfXl.A.oX.X.X<X{.+.6.a.I 6 fXfXfXfXfXfXt.p.@.{ _.eXaX'.q.fXfXfXfXfXfXfXfXn ; ; ; * = c A.,X!.p.v 1 Y fXfXfXfXfXfXfXfX",
"fXfXfXfXfXfXZ ` ~. X XXXXXc. .h.[ 5 fXfXfXfXfXfXfX1 v :.@.<.`.aXdX'.q.fXfXfXfXfXfXfXfX; # . X $ g q.[.W.a.-.q v fXfXfXfXfXfXfXfX",
"fXfXfXfXfXfXi C q.). X.XD.| u.5.j fXfXfXfXfXfXfXfX$ o l -.@.0.;XpXdX'.q.fXfXfXfXfXfXfXfX. . # * 3 { ^.|.k.a.b q  .fXfXfXfXfXfXfX",
"fXfXfXfXfXu i ~ ~ H.XX(.<.<.i.b 6 fXfXfXfXfXfXfXfXfX#   s >.@.w.,XdXpX'.9.fXfXfXfXfXfXfXX X * 2 j ' g..XR.k.>.l T fXfXfXfXfXfXfX",
"fXfXfXfXfXw p / r.Z.^.e.@.u.[ 5 fXfXfXfXfXfXfXfXfXfXs X X l :.:.c.3XdXiXv.n fXfXfXfXfXfX7 * * 3 g b w.[./.j.a.T z 1.fXfXfXfXfXfX",
"fXfXfXfXP p Q %.T.T.7.@.2.<.l 2 fXfXfXfXfXfXfXfXfXfXfXg X X l :.<.A.4XaX'.} 7.fXfXfXfXfXfXs = 2 0 k [ R. Xj.j.>.l [ fXfXfXfXfXfX",
"fXfXfXfX$.) ( J.{.T.O.@.2.I 4 fXfXfXfXfXfXfXfXfXfXfXfXfX2 . . z 5.4._.qXiXwXG.3.fXfXfXfXfXv 2 : 3 f T i.).W.R.k.U I fXfXfXfXfXfX",
"fXfXfXfXV.) &.}.}.&.r.6.' d fXfXfXfXfXfXfXfXfXfXfXfXfXfXD *   X v 2.{.;XeX:XF g fXfXfXfXfXfXl = 2 d x <.~.[.R.~.3.v  .fXfXfXfXfX",
"fXfXfX#.Q P &.K.V.V.}.%.k 4 fXfXfXfXfXfXfXfXfXfXfXfXfXfXfXk o   X k v.s.G.o.2 2 fXfXfXfXfXfXz 6 2 7 j ' g./.W.(.k.Y ` fXfXfXfXfX",
"fXfXfX> @ 8 Q ( / T.T.W 6 fXfXfXfXfXfXfXfXfXfXfXfXfXfXfXfXfX7 X X = j 2.1.m 4 2 fXfXfXfXfXfXfX0 2 2 h b 4.~./.k.k.R v fXfXfXfXfX",
"fXfXfX+   - w i ~ ].$.9 4 fXfXfXfXfXfXfXfXfXfXfXfXfXfXfXfXfXfX2 # * o ` F H y 2 fXfXfXfXfXfXfXA 6 2 0 k [ k./.f.i.d.U ' fXfXfXfX",
"fXfXfX@ o & > 9 #.V.C > fXfXfXfXfXfXfXfXfXfXfXfXfXfXfXfXfXfXfXB = * X g V J 4 fXfXfXfXfXfXfXfXfXj 2 6 s ! u.~.s.i.R.-.T fXfXfXfX",
"fXfXfXfX& < 8 u / ~ 8 fXfXfXfXfXfXfXfXfXfXfXfXfXfXfXfXfXfXfXfXfX0 * * c N M 0 fXfXfXfXfXfXfXfXfXfX7 2 d b ,.e.d.i.j.a.Y fXfXfXfX",
"fXfXfXfX& < , t P u fXfXfXfXfXfXfXfXfXfXfXfXfXfXfXfXfXfXfXfXfXfXfX2 3 g 4 6 fXfXfXfXfXfXfXfXfXfXfXs 2 2 s b 4.(.k.d.R.>.Y fXfXfX",
"fXfXfXfXfX> , t t fXfXfXfXfXfXfXfXfXfXfXfXfXfXfXfXfXfXfXfXfXfXfXfXfXf 3 3 y fXfXfXfXfXfXfXfXfXfXfXfX2 2 7 k @.k.k.i.j.a.@.fXfXfX",
"fXfXfXfXfXfXfXfXfXfXfXfXfXfXfXfXfXfXfXfXfXfXfXfXfXfXfXfXfXfXfXfXfXfXB 5 4 fXfXfXfXfXfXfXfXfXfXfXfXfX0 3 3 f _ h.j.p.p.k.t.fXfXfX",
"fXfXfXfXfXfXfXfXfXfXfXfXfXfXfXfXfXfXfXfXfXfXfXfXfXfXfXfXfXfXfXfXfXfXfXfXfXfXfXfXfXfXfXfXfXfXfXfXfXfXfX0 3 d ! 5.j.f.5.p.h.fXfXfX",
"fXfXfXfXfXfXfXfXfXfXfXfXfXfXfXfXfXfXfXfXfXfXfXfXfXfXfXfXfXfXfXfXfXfXfXfXfXfXfXfXfXfXfXfXfXfXfXfXfXfXfXd 7 7 k <.f.k.8.O.r.fXfXfX",
"fXfXfXfXfXfXfXfXfXfXfXfXfXfXfXfXfXfXfXfXfXfXfXfXfXfXfXfXfXfXfXfXfXfXfXfXfXfXfXfXfXfXfXfXfXfXfXfXfXfXfXfX0 7 s ! 2.k.+.z Q fXfXfX",
"fXfXfXfXfXfXfXfXfXfXfXfXfXfXfXfXfXfXfXfXfXfXfXfXfXfXfXfXfXfXfXfXfXfXfXfXfXfXfXfXfXfXfXfXfXfXfXfXfXfXfXfX0 0 0 k O.8.Q e 9 fXfXfX",
"fXfXfXfXfXfXfXfXfXfXfXfXfXfXfXfXfXfXfXfXfXfXfXfXfXfXfXfXfXfXfXfXfXfXfXfXfXfXfXfXfXfXfXfXfXfXfXfXfXfXfXfXfX0 0 f v Q p 8 > fXfXfX",
"fXfXfXfXfXfXfXfXfXfXfXfXfXfXfXfXfXfXfXfXfXfXfXfXfXfXfXfXfXfXfXfXfXfXfXfXfXfXfXfXfXfXfXfXfXfXfXfXfXfXfXfXfXfX8 9 e p w > fXfXfXfX",
"fXfXfXfXfXfXfXfXfXfXfXfXfXfXfXfXfXfXfXfXfXfXfXfXfXfXfXfXfXfXfXfXfXfXfXfXfXfXfXfXfXfXfXfXfXfXfXfXfXfXfXfXfXfXfX8 8 8 > < fXfXfXfX",
"fXfXfXfXfXfXfXfXfXfXfXfXfXfXfXfXfXfXfXfXfXfXfXfXfXfXfXfXfXfXfXfXfXfXfXfXfXfXfXfXfXfXfXfXfXfXfXfXfXfXfXfXfXfXfXfXfX> fXfXfXfXfXfX",
"fXfXfXfXfXfXfXfXfXfXfXfXfXfXfXfXfXfXfXfXfXfXfXfXfXfXfXfXfXfXfXfXfXfXfXfXfXfXfXfXfXfXfXfXfXfXfXfXfXfXfXfXfXfXfXfXfXfXfXfXfXfXfXfX",
"fXfXfXfXfXfXfXfXfXfXfXfXfXfXfXfXfXfXfXfXfXfXfXfXfXfXfXfXfXfXfXfXfXfXfXfXfXfXfXfXfXfXfXfXfXfXfXfXfXfXfXfXfXfXfXfXfXfXfXfXfXfXfXfX",
"fXfXfXfXfXfXfXfXfXfXfXfXfXfXfXfXfXfXfXfXfXfXfXfXfXfXfXfXfXfXfXfXfXfXfXfXfXfXfXfXfXfXfXfXfXfXfXfXfXfXfXfXfXfXfXfXfXfXfXfXfXfXfXfX"
};
