/* XPM */
static char *result[] = {
/* columns rows colors chars-per-pixel */
"64 64 59 1 ",
"  c #050504",
". c #080705",
"X c #070804",
"o c #0A0A06",
"O c #0D0D09",
"+ c #100F0B",
"@ c #0F1006",
"# c #0F100B",
"$ c #111207",
"% c #12120D",
"& c #19160D",
"* c #16180A",
"= c #1A1B0D",
"- c #161511",
"; c #181712",
": c #171812",
"> c #1B1A14",
", c #1E1E18",
"< c #211B0F",
"1 c #211E16",
"2 c #211F19",
"3 c #1E220A",
"4 c #1F2115",
"5 c #1F201A",
"6 c #222215",
"7 c #23221B",
"8 c #29261E",
"9 c #27281D",
"0 c #2A291E",
"q c #312C1F",
"w c #272621",
"e c #292621",
"r c #272821",
"t c #2C2B23",
"y c #312E26",
"u c #302D28",
"i c #2F3127",
"p c #323126",
"a c #35342B",
"s c #39352A",
"d c #3C3A2D",
"f c #3C3B33",
"g c #413C2B",
"h c #423E32",
"j c #47402D",
"k c #454133",
"l c #484335",
"z c #4E4A35",
"x c #44443C",
"c c #48473B",
"v c #524D39",
"b c #4B4C44",
"n c #524E40",
"m c #595444",
"M c #585749",
"N c #5C5849",
"B c #625D4E",
"V c #656353",
"C c #706F5F",
/* pixels */
"XX X...X.XXX.ooXXXXX   XXXXoooooX..oXoXX...ooXoo@XXXX@@@o@o@XXXX",
"$OoO@@..X.Xoo=3*@o**@X@@@XX@**3=*o.$$oo@**$$$@o$$@o$@@X@@@$@@$@@",
"@+$@@@ .ooo$@3$oo@o@ooooooXX$**$@..@@@@@<=*$$o$$@@o$@@o@@@@@@@@$",
"&&+@@o .o.Xoo@o$@X@$oXooXXX@@@@$@.o=<+++<=$*$ooooo@$@@@@@@@X@@*3",
"@.o.oo  .  XXX XXXXoXX@oXoXXXo.o. o>&Oo@&@O$@XXXX XoXXXXXXoXX@@@",
"...o@@&;;%$%X*$ XXoX@**==$%%%3=$oO;>&&><>&Ooo$$$$@O#$o@oX@Xoo@@.",
"...o+.+;>1==o*$$@XX@o@%%336=*66%&>tt222296$oo$%$$$%===3$*Oo$*$@o",
"..   .+-%%;;$%$+oo@@@@*%>04;689%>,282--2>>%@o$%O@#$*=66**oXo@ooo",
"  ..  .OOoO%OOOOOXooO$%%+-;,wtw-;,--#oOO+-O..Oo.#ooo@%%.XXXoo..X",
"        .O+++OO+%+oOoOO%+.O+;;---O-+OoOOO---OO .###@oo#.X ..X  X",
" . ..O++Oubatw,5>>%7%:6w7;;,wwur6-t8w,-5waape7->544995,,%%-Oo..@",
"oOO#%%::-fbbba7:;>16%#->5-;;;;5:%O67w>-;-,>;,,,,454i5:5,,%--%+++",
"   .O+-++affffrr22y86-%%;O;-:;---OO--O-+--;,;---59ti;,2>;++%+OOX",
"   ...OOO-+O-:;;-O%>>;OoO. .OOO .oOO.OOOO+>;OOO.##-:O--...o...  ",
"O###oO>rww>,w,->>%6pi71%6w>-ur,,-%6,,7,w,5ww;-,,>:rMcff>;--O-;-O",
"OO.OOOO+-+O%----%O=4%$O%7w,-,::%+;6>,7->>555-,,,::aCVbM5->;+-+$.",
"#O##%#%>>>##:::-#O#####OOO..O--+##+#5r%#-:,>+,5:-#tBBmn2->---+Oo",
"  OO#OO%#OOOO##++-#.OOOO. .O+.OOOO .:%OOOO.o..O.##-7,72+OO..... ",
"#o##:>>:%:2rtp56w77>5t77;-22rw>55rw,w,#%++O:::--7>:,>->>-OOo-->7",
"5OOo#%##O->67r>-#-5>>>>:-+7eut,,:,,,w5::,--,,,,:tirfw>,,,-+-%-rz",
"6o..oOOO.-w2:#-##->##:-+%%,et2--,>;--#O--+O-,,::jvmNd%--,-++%%6g",
"#   ..oOo->,:O##--%O....oO;;-,-OO--OOo O#OO .OOO18yt1OO.Oo+oO%$>",
"OO#:%:55,5rfa,576,4>-%,wti05,r77>-yp::::>5,--wa5,w7p7t4,w-7>%>;%",
"o###O-:%#>>,:O:>;-%OOO%5697>#,77:%76*-*:---#%>rw>>7lfd67wty,*$O*",
" XX  .Oo..O+-o#:;:$O%O%>16>-oOOO#OoOo...    +%:>2t8adfe-->,+oOoO",
"     %;-o.O+:####OoOOOOOO%OOO.oo ...        O,,->2212,-+Oo.OOO. ",
". o%;&7ee>--5>,,>,wrrrtt70tp8;%;---O.+++,aw:;5uu22;1,wuue;2,;;-%",
"o O$%&7ew,::###-#,6;,767>7797;%;:-Oo.oOO7aww,waut828>tfaaw,2>;%$",
"   ooo+-;-OO.OO+-%:%+-O+%;,22-++-OO .+-o;55w-w7;877q2hueee>2>;#o",
"      ..Oo     ..%5>Oo OO.OOO...     OO O+OO+u++;++1>22>2-+%%OX ",
">1%#o+;-------:,>:,>++,;>>-O%--+..#%-#O%+--++--;2;+<>;>2>-%;%oO#",
"9>6;o+>>-;>>-->,5->>--,;>,;O->1-OO+--+%,;>,--%O;;-+>>>21>-;1>+%*",
">;7%.O%-;=;;;%;,>----+->>;-ooO%+oo%-O+OO+--+%;+++.O+;;;%%%;>;+$%",
"oO#  ..o#oOOOO%+#%Oo..oo..  X     .ooo...O+OOOO.OO....oX Xoo. .O",
"oOO-O .+-%O--;;>;##OOO##+Ooo..OOO#>-OO-+-->;;,--++++%%O+%O+.o%OO",
"o#+%-OO--%O%;;&->%>-57ww>-%$O%%;>,7>-----22-2,>25,,,;2%;>%%o%%$$",
"ooo#O+o%%OO%&++@o%6--O--->w-%;->>&+-O+;;+;+.O+->,;>;-;++&Oo..oOO",
" X.ooOoO#o.++O  XOO-O  .----%%O%.O;>o.OOO+++O.+%OOO....oO.oo.   ",
"     X...Oo...O..+O.o.#%-,;+oO+o  ++oO..O+;-O.O+OOOO-+++OO+O.X  ",
"o.  OOOO+%%o@o+++%%%oo*7>7w>Oae78y>%OOo.O+++O+%&-+;,wt,--27>%OOO",
"%#o.#o#o-;-OO.o.O+++.Xoo+%O%ope>at---O+oO%%o.--+;%;2eye1;>,>,-O%",
"o.. ..O#+--Oo...oo.+.... .o .2;O%;;>>---+O--O+>;>O+-288,-%---OOO",
".    ..ooOOO...O++.O...oO.oo+;OO;;;,>OO#OO+-O+--+-;#O+---%O.OOOo",
"Oo#. --#->>;-122>2&+%%%%->;;>1;>f2,,7>-#+O-;-we;>6;OO-;>>>-o%%-$",
"#O#. O#OO+;+&;2>+-+O..OO+;;>%;-+,>##,,-:----7w-..o...--%-%OoO--%",
"oooo  oo....O-;+OO.     o%%$O.OO-oO-t7,w77>-2w+ oOO..O-OOo. O-%#",
"  ...oooO..+++-OO+o  . .++%+++.OOoO-,;+%;,,;O..OOO.OOO+OO++O  X ",
".O..OOo.OOO.O+O+-++O+,7ty2hlhy>&>;;--,,-;72-+w;,,;7r2,,72e>;-ooO",
"O+O.oO..OOO.oO##%-O O;,u,-fxky;&,55%-::--++.-5O%-,57>-->7;--;%OO",
".O..OO. OOO . .o    %,,,,-uer6>625,O%--OO+OO-,+;5>,>+O;-t7+O-+O.",
"    ..  .O.        .+:-.+;,-#OO#-;-.... ....O5e5;O:;  .O+O  ..  ",
"..O+O#%OO%####O..OO+--+OO-;+#555>-:::+-:--O+--;+++;-OO++-OO+--+O",
" .O+++#OOO.##++# ...+--.---.+,,>;%**-OOO.OO-OOOO%+-+.O++%O;>:%%#",
"..OO+-OO.OO%O.. .O+-++...OOO--++%##oO.OOOOOOO.O.OO+. O--%%975>*%",
"    OO.   .OO....O+O  ..O-O.... .oo..OO.OOO........  .OOO;-.oOOO",
"           .O.OOO.OO  .....+O.      ......O...... .. OO ooOOOOO.",
"OOOOOO..#+#--%-:--;,;+O+-O12gs2+-;;;;-;++-;2;-+.+%++&;++---+,-++",
"OOOO.......%%O%:--;;--++O.1tsgu1%-+OO%-+O-;;+.----;%++++>-OO%Oo+",
"+OO+OOOO#OO#-+-----;-OOO..1esge;-7,.+;%++-;;+++;182<%;++,2-+--%+",
"..........  ..OOOO.OO.   ..O1;;+O;- oOOo..++.+.+;;%++-O+-+OOO.  ",
". ..OOOO...O-:,-+-O;%-%.O++;1-%+%%+OO+;,;;+++;;;;--%+++&O------+",
"O.OO+-----+--:::-;++%-;---;121;-;1%+O>2211;222282;1;2278->;;->>>",
".O%-+-::.+O+OO-+-;++O+-<;-%12;-O%;>-+++-O..O+---;OO-;<;-OO..O+$O",
"  .O+....O.OOOO......OO++-;<;O+O.+<2;;2>O..&211;1+-11722-+.oO.  "
};
