/* XPM */
static char *result[] = {
/* columns rows colors chars-per-pixel */
"64 64 226 2 ",
"   c #010101",
".  c #0B0C0C",
"X  c #0C0604",
"o  c #190C04",
"O  c #1E1106",
"+  c #131313",
"@  c #1B1B1B",
"#  c #191615",
"$  c #0F1010",
"%  c #220C02",
"&  c #27150A",
"*  c #391708",
"=  c #270D1E",
"-  c #3A1817",
";  c #33101C",
":  c #1F201F",
">  c #382516",
",  c #2E0E22",
"<  c #390C24",
"1  c #311125",
"2  c #3A112A",
"3  c #3D1731",
"4  c #2C1324",
"5  c #232323",
"6  c #2C2C2C",
"7  c #343434",
"8  c #3A3A3B",
"9  c #323538",
"0  c #431909",
"q  c #471717",
"w  c #6E161F",
"e  c #4A240B",
"r  c #5A2A0E",
"t  c #562708",
"y  c #4A2A18",
"u  c #552A13",
"i  c #542B17",
"p  c #5A3314",
"a  c #55341F",
"s  c #622B0E",
"d  c #6A2907",
"f  c #742C06",
"g  c #6E320B",
"h  c #673707",
"j  c #793307",
"k  c #75350D",
"l  c #7B340C",
"z  c #7C3A0C",
"x  c #70380A",
"c  c #662814",
"v  c #742413",
"b  c #643213",
"n  c #6B3413",
"m  c #683A15",
"M  c #7A3B12",
"N  c #733B14",
"B  c #450A26",
"V  c #4A182A",
"C  c #451435",
"Z  c #4B153A",
"A  c #4D1A3B",
"S  c #481D35",
"D  c #581638",
"F  c #690E35",
"G  c #750C3B",
"H  c #6B112E",
"J  c #572229",
"K  c #473225",
"L  c #45273A",
"P  c #7C4409",
"I  c #794415",
"U  c #47403B",
"Y  c #7C5429",
"T  c #73583B",
"R  c #704824",
"E  c #3A3D40",
"W  c #5F1E4A",
"Q  c #571C44",
"!  c #611E4B",
"~  c #701342",
"^  c #5D224A",
"/  c #5B2046",
"(  c #64214E",
")  c #662451",
"_  c #692553",
"`  c #6A2855",
"'  c #434343",
"]  c #494949",
"[  c #4B4545",
"{  c #545454",
"}  c #5E5D5D",
"|  c #575758",
" . c #574E4F",
".. c #605A58",
"X. c #67615A",
"o. c #656565",
"O. c #6B6B6B",
"+. c #666768",
"@. c #737373",
"#. c #7B7B7B",
"$. c #7E7571",
"%. c #893404",
"&. c #8B3D0C",
"*. c #863509",
"=. c #923C0B",
"-. c #9D3F0A",
";. c #983D06",
":. c #8C3F11",
">. c #AA3E05",
",. c #831327",
"<. c #8D430E",
"1. c #864D03",
"2. c #95420C",
"3. c #9B440C",
"4. c #984307",
"5. c #8C5409",
"6. c #9B530C",
"7. c #824312",
"8. c #8B4512",
"9. c #8C4913",
"0. c #824E19",
"q. c #934A14",
"w. c #995617",
"e. c #A4450C",
"r. c #A7490A",
"t. c #B44C0C",
"y. c #B94B07",
"u. c #AC560D",
"i. c #BC530A",
"p. c #B5570C",
"a. c #A34B11",
"s. c #AA4D14",
"d. c #A55311",
"f. c #AC5212",
"g. c #A85B14",
"h. c #BB5610",
"j. c #BA5A11",
"k. c #B45913",
"l. c #97611D",
"z. c #A6641A",
"x. c #B76513",
"c. c #B9600D",
"v. c #894D29",
"b. c #934D25",
"n. c #8A5826",
"m. c #8D5A2C",
"M. c #C54D03",
"N. c #C64A02",
"B. c #C4540B",
"V. c #C45B0C",
"C. c #CC5A0B",
"Z. c #C95606",
"A. c #D65C05",
"S. c #DC5A06",
"D. c #D45C0A",
"F. c #DC5C08",
"G. c #D65503",
"H. c #C65D15",
"J. c #E55B01",
"K. c #E95D01",
"L. c #E65700",
"P. c #CF650A",
"I. c #CA680C",
"U. c #DC6406",
"Y. c #DD620A",
"T. c #D76A0B",
"R. c #DB730B",
"E. c #DE750B",
"W. c #CA6512",
"Q. c #C57714",
"!. c #D67711",
"~. c #D16F10",
"^. c #E66302",
"/. c #E96502",
"(. c #E76903",
"). c #E96C03",
"_. c #E36A09",
"`. c #E46709",
"'. c #EA7303",
"]. c #EC7B05",
"[. c #E3720B",
"{. c #ED7E09",
"}. c #E67508",
"|. c #F17E05",
" X c #841244",
".X c #97124D",
"XX c #9F1553",
"oX c #8D134C",
"OX c #BB0F5D",
"+X c #B40E57",
"@X c #B6125D",
"#X c #A7185F",
"$X c #BE1162",
"%X c #B51764",
"&X c #C11163",
"*X c #875741",
"=X c #856653",
"-X c #8D7764",
";X c #937B6D",
":X c #937E76",
">X c #83736D",
",X c #EF8205",
"<X c #E8860B",
"1X c #F08405",
"2X c #F38B06",
"3X c #F28A08",
"4X c #F18408",
"5X c #E28912",
"6X c #F69109",
"7X c #8C8072",
"8X c #828282",
"9X c #888B8C",
"0X c #9B918B",
"qX c #969696",
"wX c #9A9A9A",
"eX c #938A82",
"rX c #A89991",
"tX c #A5A6A6",
"yX c #ABACAD",
"uX c #BCB9B7",
"iX c #BDBFC0",
"pX c #C7C7C7",
"aX c #D6D6D7",
"sX c #E3E4E4",
"dX c #FDFDFD",
"fX c None",
/* pixels */
"fXfXfXfXfXfXfXfXfXfXfXfXfXfXfXfXfXfXfXfXfXfXfXfXfXfXfXfXfXfXfXfXfXfXfXfXfXfXfXfXfXfXfXfXfXfXfXfXfXfXfXfXfXfXfXfXfXfXfXfXfXfXfXfX",
"fXfXfXfXfX@ + fXfXfXfXfXfXfXfXfXfXfXfXfXfXfXfXfXfXfXfXfXfXfXfXfXfXfXfXfXfXfXfXfXfXfXfXfXfXfXfXfXfXfXfXfXfXfXfXfXfXfXfXfXfXfXfXfX",
"fXfXfX.       X . @ . fXfXfXfXfXfXfXfXfXfXfXfXfXfXfXfXfXfXfXfXfXfXfXfXfXfXfXfXfXfXfXfXfXfXfXfXfXfXfXfXfXfXfXfXfXfXfXfXfXfXfXfXfX",
"fXfX.               X fXfXfXfXfXfXfXfXfXfXfXfXfXfXfXfXfXfXfXfXfXfXfXfXfXfXfXfXfXfX5 . . fXfXfXfXfXfXfXfXfXfXfXfXfXfXfXfXfXfXfXfX",
"fXfX      + 6 7 @     . @ fXfXfXfXfXfXfXfXfXfXfXfXfXfXfXfXfXfXfXfXfXfXfX5 . . .         . fXfXfXfXfXfXfXfXfXfXfXfXfXfXfXfXfXfXfX",
"fX+     . } @.@.o.] @     + fXfX5 fXfXfXfXfXfXfXfXfXfXfXfXfXfXfXfX+ . X                 X fXfXfXfXfXfXfXfXfXfXfXfXfXfXfXfXfXfXfX",
"fX      7 @.@.O.O.O.o.' #   . . + fXfXfXfXfXfXfXfXfXfXfXfXfX+ .                           fXfXfXfXfXfXfXfXfXfXfXfXfXfXfXfXfXfXfX",
"fX.     { #.@.@.O.O.O.O.} 8 .   + fXfXfXfXfXfXfXfXfXfXfX. X                   X           fXfXfXfXfXfXfX@ + fXfXfXfXfXfXfXfXfXfX",
"fX    . } #.@.@.@.O.O.O.O.+.{ 6 X X : fXfXfXfXfXfXfX$                 . $ fXfXfXfX      . fXfXfXfXfXfXfX. X fXfXfXfXfXfXfXfXfXfX",
"fXX   . O.#.#.@.@.O.O.O.O.o.o.o.] @   $ + fXfXfXfX.             . fXfXfXfXfXfXfXfX.     $ fXfXfXfXfXfXfX+ @ + fXfXfXfXfXfXfXfXfX",
"fX.   . O.#.#.@.@.O.O.O.+.O.+.+.o.} 8 $ X : fXfX@             # fXfXfXfXfXfXfXfXfX.     . fXfXfXfXfXfX+ 8 { + fXfXfXfXfXfXfXfXfX",
"fX    . O.#.#.@.@.@.O.O.O.O.+.+.o.o.o.{ 6 . . 6 @     o * t d %.%.*.m K fXfXfXfXfXX     . fXfXfXfXfXfX+ #.fX+ fXfXfXfXfXfXfXfXfX",
"fX.     } 8X#.@.@.@.@.O.O.O.+.O.+.o.o.o.} ] : . X 0 %.f.H.Y.Y.U.U.T.W.k.d.3.M K +       $ fXfXfXfXfXfX+ [ 5 . fXfXfXfXfXfXfXfXfX",
"fX$     8 8X8X#.#.@.O.O.O.O.O.o.+.o.o.o.+.o.[ * *.C.K.K.J.^.^.J.`.(././.).(.W.q.>       fXfXfXfXfXfXfX+ . : U 9 fXfXfXfXfXfXfXfX",
"fXfX    + @.8X#.$.@.@.O.O.O.O.+.O.o.o.o.o.L r t.J.J.J.J.J.^.K.`.K.^./.(./.(.(._.r       e P fXfXfXfXfXwXtXyXpXwX7 fXfXfXfXfXfXfX",
"fXfX      ] 8X#.#.@.@.@.O.O.O.O.+.+.o.o.] b B.J.L.J.J.J.J.J.J.J.3.v.i././.(.).(.t       6.~.z.w.I fXfXdXsXpXsXpX8X7 fXfXfXfXfXfX",
"fXfXX     + O.#.@.@.#.@.O.O.O.O.O.O.O.{ u B.L.L.L.J.J.F.L.K.J.2.# ] =Xf.`./.(.(.t     X g.].'.].~.z.v.-XyXaXdXaXuXO.fXfXfXfXfXfX",
"fXfXfXX     5 @.#.#.@.@.@.O.O.O.O.+.} K t.J.J.L.L.L.J.J.L.F.:.%   X o.;Xi.).(.(.d     o x.'.'.].].1X<Xz.Y 7XpXpXpXuX] fXfXfXfXfX",
"fXfXfXfX      5 o.#.#.@.@.O.O.O.O.O.[ k F.J.L.L.L.J.L.L.s.c X       # tXm.`./.(.p.e o * I.'.'.].].].,X1X<Xl.T wXpXaX#.fXfXfXfXfX",
"fXfXfXfX$       + ] O.@.@.O.O.O.O.o.K i.J.J.J.J.J.L.L.Y.b.} X         qX;XC./.(.).U.d.u.}.'.'.'.].].].,X,X3X~.Y rXaXqXfXfXfXfXfX",
"fXfXfXfXfXfX        @ ' o.@.@.O.O.| g J.J.J.J.J.L.F.L.F.s.>X+         qX0XZ./.(.(.)._.'.'.}.'.'.'.].].,X,X4X3X5Xl.7XwX6 fXfXfXfX",
"fXfXfXfXfXfXfXX         + 8 } O.O.] 2.^.J.J.J.J.L.L.L.L.N.>X9       + iX0XZ././.(.(.).).).).).'.].].{.,X,X,X,X2X6Xl.U $ fXfXfXfX",
"fXfXfXfXfXfXfX+ X           . 7 { K s.K.J.J.J.J.L.L.S.L.F.b.>X5   . O.sX-XZ./.^./.(.(.).).'.).'.'.'.].].4X4X,X2X6X5XI . fXfXfXfX",
"fXfXfXfXfXfXfXfXfXfX. X         $ & h.^.^.J.J.J.J.L.L.L.L.B.*XqX9XtXsXuXb.U.^./.(.(.(.).).).'.).'.'.].}.,X{.4X3X6X6X5Xe @ fXfXfX",
"fXfXfXfXfXfXfXfXfXfXfXfXo o X     % j.^.J.^.J.J.J.J.S.L.L.F.B.v.:XrX7Xv.C.^.^.^.(.(.(.(.).).'.}.'.'.].].,X,X1X1X3X2X3X5.# fXfXfX",
"fXfXfXfXfXfXfXfXfXfXfXfXp q.g % O o s.K.K.J.J.J.J.e.i.J.J.L.L.F.N.y.M.F.`.K.^.^.^.^.(.(.).).(.).}.'.'.].].,X1X1X2X2X<X5X> fXfXfX",
"fXfXfXfXfXfXfXfXfXfXfXfXm P.V.q.q.* f `.`.J.K.K.>.d G.L.J.L.J.L.J.K.K.J.^.^.^.^.^.(.(.(.(.).).'.).'.'.].].].,X1X,X2X2X5XI fXfXfX",
"fXfXfXfXfXfXfXfXfXfXfXfXfXx t.a.a , - 4.Y.Y.F.e.- M J.L.L.L.J.L.L.J.J.J.J.J.K.^.^./.^./.(.).).).'.'.'.'.].].,X,X2X,X3X3Xh   + fX",
"fXfXfXfXfXfXfXfXfXfXfXfXfXn ; V [ L Q ; u n 0  .} 0 B.L.L.J.J.J.J.J.J.^.J.^.J.^.^.^./.(.(.(.).).(.'.'.'.].].].,X1X1X2X2XP     $ ",
"fXfXfXfXfXfXfXfXfXfXfXfXfXI S ) 3 A W A 2 < 2  .^ , j J.L.L.J.L.J.J.J.J.J.^.K.^.^.^././.(.(.).).).'.'.'.].].,X].1X1X2X2X1.    + ",
"fXfXfXfXfXfXfXfXfXfXfXfXfXR S _ ( W ! W Z Z C , 5 3 q B.J.J.L.L.L.J.J.J.J.^.^.J.^./.^././.(.(.).).'.}.'.'.].].].1X1X2X2X1.    + ",
"fXfXfXfXfXfXfXfXfXfXfXfXfXR J ` _ ! ! W Q C C C C C 1 ;.J.L.L.J.L.L.J.J.J.J.J.^.J.^.^.^.).(.(.(.).).).'.'.].].,X].,X3X6X5.@   # ",
"fXfXfXfXfXfXfXfXfXfXfXfXfX0.p ^ ) ) ( W Q C 3 Q C C 2 d F.L.J.L.J.L.J.J.J.J.J.J.^.^.^.^././.(.).).).'.'.}.].].].].,X,X2Xw.9   + ",
"fXfXfXfXfXfXfXfXfXfXfXfXfX8.7./ _ ) ( ( W Q C 1 , , = - B.J.J.L.J.J.L.J.J.J.J.^.J.^.^.^././.(.(.).).).).'.'.].].].,X2X2Xn.E   + ",
"fXfXfXfXfXfXfXfXfXfXfXfXfXz k.J _ ) ( W W Q B F < B F q B.J.J.L.J.L.L.J.J.J.J.J.^.J.J.^./././.(.(.).).'.'.'.'.].].,X,X<Xm.8   # ",
"fXfXfXfXfXfXfXfXfXfXfXfXfXp x.m W ) ) ! W 2 ,.XXF XX@XH i.J.J.L.S.L.J.L.J.J.J.^.J.^.^.^.^././.(.(.(.).).'.'.'.].].,X,XE.Y 7   + ",
"fXfXfXfXfXfXfXfXfXfXfXfXfXfXg.c.S ` ) ( A G OXG .XOX+Xw V.J.J.J.L.L.J.L.J.J.J.J.J.^.^.^.^.^.(.^.(.(.).).'.'.'.'.].].,X5XX.6   # ",
"fXfXfXfXfXfXfXfXfXfXfXfXfXfX4.E.c ^ ) ( D @XOXoX+XOX.Xv U.J.J.J.L.S.L.J.J.S.J.J.J.^.J.^.^.^./.(.(.).).).).'.'.'.].].,Xx.X.&   + ",
"fXfXfXfXfXfXfXfXfXfXfXfXfXfXI ~.p.J ` A oX%X&XOX$XOXF 4.J.J.J.J.J.L.J.J.L.J.J.J.^.S.^.J.^.^.^.^./.(.T.W.).).'.'.].].,Xx.X.+   + ",
"fXfXfXfXfXfXfXfXfXfXfXfXfXfXfXp.[.M A D @X&X&X&XOX~ v D.^.J.J.J.J.J.L.J.L.J.J.J.J.J.J.^.J.Y.^././.(.f.4.).'.'.'.'.].,Xg.' .   + ",
"fXfXfXfXfXfXfXfXfXfXfXfXfXfXfXI }.W.y ~ %X%X#XoXH v B.J.^.J.J.J.J.L.L.L.L.L.J.J.J.J.J.J.S.=.A././.U.k P.).).).'.'.].,XP       + ",
"fXfXfXfXfXfXfXfXfXfXfXfXfXfXfXfXc.'.k.v ,.,.w c 8.P.^.^.^.J.^.J.J.J.L.S.L.F.J.J.J.J.J.J.`.=.;././.Z.N _.).'.).'.'.'.E.e       fX",
"fXfXfXfXfXfXfXfXfXfXfXfXfXfXfXfXI E.].U.V.C.F.`.^.^.^.^.^.J.J.J.J.J.L.J.L.L.L.J.J.J.J.`.K.A.j B.).y.2.).).).).'.'.'.~.&     $ fX",
"fXfXfXfXfXfXfXfXfXfXfXfXfXfXfXfXfXu.'.).'.(.).^././.^.^.J.^.^.J.J.J.J.L.L.J.L.L.J.J.J.J.K.^.e.8./.y.e.).(.(.).'.'.].P.o + fXfXfX",
"fXfXfXfXfXfXfXfXfXfXfXfXfXfXfXfXfXN P.'.).).).)././.^.^.^.^.^.J.J.J.J.J.J.J.L.J.J.J.L.J.J.J.t.z /.M.2._.)./.).'.'.'.R.p a fXfXfX",
"fXfXfXfXfXfXfXfXfXfXfXfXfXfXfXfXfXfX<._.'.).).).(./.^./.^.^.J.^.J.J.J.J.S.S.L.J.J.J.S.J.J.^.p.j ^.M.z _.(./.).).'.'.'.R.w.fXfXfX",
"fXfXfXfXfXfXfXfXfXfXfXfXfXfXfXfXfXfXfXd._.'.).).(././.^.J.^.^.J.J.J.J.J.e.N.L.J.J.J.J.J.J.K.i.j K.D.g U.).).).).).'.'.].R.z fXfX",
"fXfXfXfXfXfXfXfXfXfXfXfXfXfXfXfXfXfXfXfXd.[.).).(.(././.^.^.J.^.^.J.J.Y.-.>.L.L.L.J.J.J.J.^.h.l J.`.*.i././.).).).).'.].I.g fXfX",
"fXfXfXfXfXfXfXfXfXfXfXfXfXfXfXfXfXfXfXfXfXq.[.'.)./././.^.^.^.^.J.J.J.J.>.=.J.J.J.J.L.J.J.K.C.f G.G.4.k (./.(.).).).'.'.u.fXfXfX",
"fXfXfXfXfXfXfXfXfXfXfXfXfXfXfXfXfXfXfXfXfXfX7.P.).).(./.^.^.^.J.^.K.`.^.G.n F.L.L.J.L.J.J.J.D.v <.<.s > a.`.(.).(.).'.'.<.fXfXfX",
"fXfXfXfXfXfXfXfXfXfXfXfXfXfXfXfXfXfXfXfXfXfX> e u._.)./././.J.`.^.J.J.J.F.l M.L.J.L.J.J.J.J.K.*.y y fXfXa 7.Z._.).).).~.m fXfXfX",
"fXfXfXfXfXfXfXfXfXfXfXfXfXfXfXfXfXfXfXfXfXI u.9.d b u.U.(././.J.^.J.J.J.J.>.l L.L.L.L.L.J.J.J.t.0 fXfXfXfXfXp q._.).).j.fXfXfXfX",
"fXfXfXfXfXfXfXfXfXfXfXfXfXfXfXfXfXfXfXfXq.!.}.P.w.:.d r q.Z.^.`.(.`.J.J.J.D.s e.J.J.L.L.L.J.J.F.8.fXfXfXfXfXfXfXa.).).u.fXfXfXfX",
"fXfXfXfXfXfXfXfXfXfXfXfXfXfXfXfXfXfXfXfXg.{.'.}.R.h.0.> * d N I q.f.i.C.Z.h.b 0 t.J.S.J.J.J.J.J.C.m fXfXfXfXfXfX7.(.).r.fXfXfXfX",
"fXfXfXfXfXfXfXfXfXfXfXfXfXfXfXfXfXfXfXfXfX0.z.x.w.I i fXfXfXfXfXfXfXfXfXfXfXfXfXc s.L.L.J.L.J.J.J.s.fXfXfXfXfXfX&./.).;.fXfXfXfX",
"fXfXfXfXfXfXfXfXfXfXfXfXfXfXfXfXfXfXfXfXfXfXfXb fXfXfXfXfXfXfXfXfXfXfXfXfXfXfXfXfXc s.L.J.J.L.J.K.M.fXfXfXfXfXfX2.).U.m fXfXfXfX",
"fXfXfXfXfXfXfXfXfXfXfXfXfXfXfXfXfXfXfXfXfXfXfXfXfXfXfXfXfXfXfXfXfXfXfXfXfXfXfXfXfXfXi t.J.L.J.L.J.3.fXfXfXfXfXfX9.P.7.fXfXfXfXfX",
"fXfXfXfXfXfXfXfXfXfXfXfXfXfXfXfXfXfXfXfXfXfXfXfXfXfXfXfXfXfXfXfXfXfXfXfXfXfXfXfXfXfXfX&.J.L.J.J.B.r fXfXfXfXfXfXt g fXfXfXfXfXfX",
"fXfXfXfXfXfXfXfXfXfXfXfXfXfXfXfXfXfXfXfXfXfXfXfXfXfXfXfXfXfXfXfXfXfXfXfXfXfXfXfXfXfXfX*.L.L.L.D.M fXfXfXfXfXfXfXfXfXfXfXfXfXfXfX",
"fXfXfXfXfXfXfXfXfXfXfXfXfXfXfXfXfXfXfXfXfXfXfXfXfXfXfXfXfXfXfXfXfXfXfXfXfXfXfXfXfXfXfX-.J.L.F.-.fXfXfXfXfXfXfXfXfXfXfXfXfXfXfXfX",
"fXfXfXfXfXfXfXfXfXfXfXfXfXfXfXfXfXfXfXfXfXfXfXfXfXfXfXfXfXfXfXfXfXfXfXfXfXfXfXfXfXfX&.G.J.J.e.e fXfXfXfXfXfXfXfXfXfXfXfXfXfXfXfX",
"fXfXfXfXfXfXfXfXfXfXfXfXfXfXfXfXfXfXfXfXfXfXfXfXfXfXfXfXfXfXfXfXfXfXfXfXfXfXfXfXfXi D.L.J.a.q fXfXfXfXfXfXfXfXfXfXfXfXfXfXfXfXfX",
"fXfXfXfXfXfXfXfXfXfXfXfXfXfXfXfXfXfXfXfXfXfXfXfXfXfXfXfXfXfXfXfXfXfXfXfXfXfXfXfXfXp D.J.e.e fXfXfXfXfXfXfXfXfXfXfXfXfXfXfXfXfXfX",
"fXfXfXfXfXfXfXfXfXfXfXfXfXfXfXfXfXfXfXfXfXfXfXfXfXfXfXfXfXfXfXfXfXfXfXfXfXfXfXfXfXfXe.e.u fXfXfXfXfXfXfXfXfXfXfXfXfXfXfXfXfXfXfX"
};
