/* XPM */
static char *result[] = {
/* columns rows colors chars-per-pixel */
"64 64 229 2 ",
"   c #020202",
".  c #0B0505",
"X  c #0C0C0C",
"o  c #070708",
"O  c #150805",
"+  c #0E100E",
"@  c #19100C",
"#  c #131313",
"$  c #1B1B1B",
"%  c #1A1717",
"&  c #130F11",
"*  c #240B05",
"=  c #290A03",
"-  c #29130A",
";  c #261C15",
":  c #351816",
">  c #331116",
",  c #3B231A",
"<  c #362212",
"1  c #2B1225",
"2  c #371528",
"3  c #3E1634",
"4  c #3F1830",
"5  c #300E24",
"6  c #232323",
"7  c #2C2C2C",
"8  c #292927",
"9  c #3B2A23",
"0  c #3C2936",
"q  c #343433",
"w  c #3C3B3B",
"e  c #3A342F",
"r  c #4B1C0A",
"t  c #441A07",
"y  c #561D15",
"u  c #4B240D",
"i  c #58230C",
"p  c #482818",
"a  c #582A18",
"s  c #4C301F",
"d  c #5E371E",
"f  c #662A17",
"g  c #732D15",
"h  c #68361A",
"j  c #77371A",
"k  c #461629",
"l  c #411A33",
"z  c #441839",
"x  c #58132E",
"c  c #671D28",
"v  c #6F1A38",
"b  c #4A2925",
"n  c #592522",
"m  c #47362B",
"M  c #5A3729",
"N  c #4C2538",
"B  c #512432",
"V  c #473833",
"C  c #553C32",
"Z  c #6A2428",
"A  c #673821",
"S  c #783C25",
"D  c #722A28",
"F  c #7C441D",
"G  c #4C4135",
"H  c #5A4131",
"J  c #694329",
"K  c #784628",
"L  c #694937",
"P  c #774B35",
"I  c #78563B",
"U  c #3C3E40",
"Y  c #501E44",
"T  c #661D42",
"R  c #542245",
"E  c #592447",
"W  c #5B254C",
"Q  c #5A294A",
"!  c #443E42",
"~  c #5E2A52",
"^  c #4F2241",
"/  c #622A4E",
"(  c #7A284A",
")  c #612A52",
"_  c #602752",
"`  c #444342",
"'  c #4A4949",
"]  c #5A5B5A",
"[  c #555554",
"{  c #54464D",
"}  c #755C42",
"|  c #705F53",
" . c #66615A",
".. c #706257",
"X. c #605F60",
"o. c #5E6061",
"O. c #656565",
"+. c #666866",
"@. c #6B6C6C",
"#. c #686668",
"$. c #756863",
"%. c #74716E",
"&. c #737373",
"*. c #7B7B7B",
"=. c #7B7B76",
"-. c #883B16",
";. c #943C15",
":. c #8C390E",
">. c #843D27",
",. c #85431B",
"<. c #88461B",
"1. c #95471B",
"2. c #8E501E",
"3. c #AD4D1E",
"4. c #B5521E",
"5. c #A3531D",
"6. c #8B4B25",
"7. c #844727",
"8. c #944C26",
"9. c #974B26",
"0. c #88562A",
"q. c #9A5827",
"w. c #944F32",
"e. c #855B3B",
"r. c #865538",
"t. c #975537",
"y. c #864D36",
"u. c #A84C24",
"i. c #A85827",
"p. c #BB5D2B",
"a. c #B65623",
"s. c #A95E37",
"d. c #98633C",
"f. c #A76527",
"g. c #BB6628",
"h. c #A7623B",
"j. c #BC6539",
"k. c #BE6B3A",
"l. c #B76537",
"z. c #BE7535",
"x. c #C65D26",
"c. c #D75F29",
"v. c #C05D30",
"b. c #C5642C",
"n. c #CD642D",
"m. c #C66B2D",
"M. c #CB6B2C",
"N. c #C86325",
"B. c #D46326",
"V. c #D46927",
"C. c #D46429",
"Z. c #D8652B",
"A. c #D66B2B",
"S. c #D96D2C",
"D. c #D86126",
"F. c #C8752D",
"G. c #D6722C",
"H. c #D9732D",
"J. c #D7782C",
"K. c #DB7A2E",
"L. c #D77527",
"P. c #C46532",
"I. c #CC6530",
"U. c #C46933",
"Y. c #CD6D34",
"T. c #C56C39",
"R. c #D16632",
"E. c #D46D32",
"W. c #CE7132",
"Q. c #C5723B",
"!. c #CD7339",
"~. c #C87C3A",
"^. c #D57332",
"/. c #DA7531",
"(. c #D67B31",
"). c #DC7D31",
"_. c #D57C3A",
"`. c #D1733B",
"'. c #E07B32",
"]. c #911E50",
"[. c #872448",
"{. c #962A55",
"}. c #94325B",
"|. c #A6285A",
" X c #9E3561",
".X c #AD2B62",
"XX c #A52A62",
"oX c #8A5C41",
"OX c #975B41",
"+X c #966546",
"@X c #836858",
"#X c #966E4C",
"$X c #A96942",
"%X c #AF7244",
"&X c #B47743",
"*X c #B76F40",
"=X c #947264",
"-X c #897870",
";X c #C17B44",
":X c #DC822E",
">X c #D7812E",
",X c #DE8232",
"<X c #D98736",
"1X c #E08533",
"2X c #E28B34",
"3X c #E18D39",
"4X c #E59135",
"5X c #E59239",
"6X c #9C8372",
"7X c #A58678",
"8X c #C88041",
"9X c #868685",
"0X c #949693",
"qX c #97918E",
"wX c #A9998F",
"eX c #AD9E94",
"rX c #A9A9A7",
"tX c #B4B4B4",
"yX c #BFBFBC",
"uX c #B4ACA3",
"iX c #C0BEBF",
"pX c #C1C1BE",
"aX c #C2C4C2",
"sX c #C9C9C8",
"dX c #D5D5D4",
"fX c #DDDCD8",
"gX c #E3E2DE",
"hX c #ECEDEA",
"jX c None",
/* pixels */
"jXjXjXjXjXjXjXjXjXjXjXjXjXjXjXjXjXjXjXjXjXjXjXjXjXjXjXjXjXjXjXjXjXjXjXjXjXjXjXjXjXjXjXjXjXjXjXjXjXjXjXjXjXjXjXjXjXjXjXjXjXjXjXjX",
"jXjXjXjXjXjXjXjXjXjXjXjXjXjXjXjXjXjXjXjXjXjXjXjXjXjXjXjXjXjXjXjXjXjXjXjXjXjXjXjXjXjXjXjXjXjXjXjXjXjXjXjXjXjXjXjXjXjX$ jXjX6 jXjX",
"jXjXjXjXjXjXjXjXjXjXjXjXjXjXjXjXjXjXjXjXjXjXjXjXjXjXjXjXjXjXjXjXjXjXjXjXjXjXjXjXjXjXjXjXjXjXjXjXjXjXjXjXjX% # % X       o # jXjX",
"jXjXjXjXjXjXjXjXjXjXjXjXjXjXjXjXjXjXjXjXX + 6 jXjXjXjXjXjXjXjXjXjXjXjXjXjXjXjXjXjXjXjXjXjXjXjXjXjXjXjXjXjXo               . jXjX",
"jXjXjXjXjXjXjXjXjXjXjXjXjXjXjXjXjXjXjXX         o X X 6 jXjXjXjXjXjXjXjXjXjXjXjXjXjXjXjXjXjXjXjXjXjXjX6 #     # 8 q 6       # jX",
"jXjXjXjXjXjXjXjXjXjXjXjXjXjXjXjXjXjXjXo                 o + + jXjXjXjXjXjXjXjXjXjXjXjXjXjXjXjXjXjXjXjXo   # w X.@.&.@.8     o jX",
"jXjXjXjXjXjXjXjXjXjXjXjXjXjXjXjXjXjXjXo                         X # jXjXjXjXjXjXjXjXjXjXjXjXjXjX+ X . + q ] @.@.@.&.*.] o     jX",
"jXjXjXjXjXjXjXjXjXjX% $ jXjXjXjXjXjXjX      . o o o                   X $ jXjXjXjXjXjXjXjXjXjX%   o 7 [ #.@.@.@.@.&.*.@.%   . # ",
"jXjXjXjXjXjXjXjXjXjXo X jXjXjXjXjXjXjXX     o jXjXjXjX$ + o               X jXjXjXjXjXjXjXjXX   6 ' O.#.@.@.@.@.&.&.*.&.6     X ",
"jXjXjXjXjXjXjXjXjXjXX # jXjXjXjXjXjXjX#     X jXjXjXjXjXjXjXjXX .           o jXjXjXjX$ + o # w o.#.#.#.@.@.@.&.&.&.*.*.7     % ",
"jXjXjXjXjXjXjXjXjX# jXjX# jXjXjXjXjXjX%     X jXjXjXjXjXjXjXjXjXjX.           & jXjXjXX X 8 [ +.#.O.@.@.@.@.@.&.&.&.*.*.7     jX",
"jXjXjXjXjXjXjXjXjXX jXjX# jXjXjXjXjXjXjX      jXjXjXjXjXg K -.:.-.g i r = O   & U o X 6 ' O.O.+.#.#.#.@.@.@.@.&.&.*.*.*.7     + ",
"jXjXjXjXjXjXjXjXjXo # 6 # jXjXjXjXjXjXjX      - h -.1.5.a.m.A.A.A.C.M.b.a.;.i O X % ! X.#.O.O.O.#.@.@.@.@.@.&.&.&.=.*.=.$     X ",
"jXjXjXjXjXjXjXjXq ` 6 X X jXjXjXjXjXjXjXo     < 2.b.A.G.S.A.A.A.A.A.V.A.Z.R.v.8.r V X.O.O.O.O.+.#.#.@.@.&.@.@.*.*.*.9XO.X   o jX",
"jXjXjXjXjXjXjXq 0XaXrXrX9XjXjXjXjXjX<.p .     r m.H.G.A.A.E.!.E.Z.C.Z.C.A.C.C.Z.p.h m X.O.#.#.#.@.@.@.@.&.@.&.&.*.*.9Xw     X jX",
"jXjXjXjXjXjXjX*.sXgXsXgXjXjXjX<.2.g.F.d.X     u Y.H.A.L.!.$Xr.K P.A.V.B.B.B.C.V.C.v.j V X.#.O.#.#.#.@.@.@.&.&.=.*.*.@.X     # jX",
"jXjXjXjXjXjX+.iXfXhXfXuX=X0.f.W.K.:X'.$X@     r M.G.H.^.+X$.] ; A P.C.Z.C.c.C.B.c.C.b.h ` +.+.@.@.@.@.@.&.&.&.&.*.*.q       # jX",
"jXjXjXjXjX' tXsXsXpX6X0.f.>X1X1X,XK.).*X-     i M.S.S.h.-X*.+   O A l.R.C.C.C.D.c.c.Z.l.m [ +.+.@.@.@.@.&.&.*.*.*.` .     jXjXjX",
"jXjXjXjXjX&.dXsXwXI f.>X2X2X:X:X:XK.K.Q.u = r a.^.H.^.oXrX7         p 9.B.B.B.x.c.n.D.C.8.V +.@.@.@.@.&.&.&.*.&.` o     o jXjXjX",
"jXjXjXjXjX0XfXeX0.F.2X2X2X1X:XK.'.).K./.i.5.m.G.S.H.k.@XrX+         ` r.x.c.B.c.B.D.n.C.b.M ] @.@.@.@.&.&.%.] 6       o jXjXjXjX",
"jXjXjXjX6 0XwXq.<X4X2X1X,X,X,X,X)./.H.K./.H.G.G.A.H.l.-XtX&         $.t.N.c.c.c.B.B.n.B.C.7.` @.@.&.@.@.[ 6 o     . X jXjXjXjXjX",
"jXjXjXjX& C q.<X5X2X2X2X<X,X,X:XK.G.H.H.K.S.G.G.S.L.l.-XdX7       ; =Xu.c.c.B.B.n.C.V.B.Z.s.V @.@.O.' 6 o         + jXjXjXjXjXjX",
"jXjXjXjXO <.4X4X2X2X2X<X,X,XK.'.K.K.K.K.G.H.G.S.S.A.P.@XgX0X# . % %.OXx.c.B.B.B.V.n.V.D.V.l.m [ w $ o         o X jXjXjXjXjXjXjX",
"jXjXjX; u <X4X4X2X2X1X,X,XK.K.(./.G.G.G.H.H.S.S.S.A.A.y.eXgXtXqXqXOXa.c.c.n.c.D.B.C.C.C.A.T.p X         . X + jXjXjXjXjXjXjXjXjX",
"jXjXjX; q.4X4X4X<X4X:X:X,XK.K.K.K.G.K.H.H.A.H.S.A.S.S.m.6.=XwX=Xt.4.N.Z.C.n.I.Z.B.A.C.B.A.k.,     . * @ # jXjXjXjXjXjXjXjXjXjXjX",
"jXjXjXu ~.5X4X4X2X:X:X2X,X,X/.K.K.G.S.H.S.H.A.A.A.A.C.A.R.a.3.4.x.c.c.c.c.p.<.v.C.C.C.A.A.l.< * = i <.L jXjXjXjXjXjXjXjXjXjXjXjX",
"jXjXjXd <X4X2X2X2X2X:X,X).K.G.K.G.G.H.H.G.A.A.A.A.A.A.V.B.A.A.C.Z.Z.c.c.B.n.S j U.C.Z.c.Y.r.- K 8.i.Q.P jXjXjXjXjXjXjXjXjXjXjXjX",
"jX# . h 5X4X2X2X2X2X:X:X>XK./.K.G.H.H.A.G.A.G.A.A.A.A.B.B.B.n.C.Z.c.C.B.C.R.r.: S j.R.;XOXk 1 b P oXP < jXjXjXjXjXjXjXjXjXjXjXjX",
"+     F 4X4X2X:X,X,XK.,X).K.K.G.G.G.H.S.A.S.A.A.A.Z.B.A.C.Z.c.c.c.C.n.B.C.j.b V $.: A M 2 z 0 { l 2 a m jXjXjXjXjXjXjXjXjXjXjXjX",
"+     2.4X4X2X2X1X,X1X1X).K./.G.G./.H.E.H.A.A.A.A.A.A.C.C.V.B.B.x.B.c.D.n.y.1 0 #.1 5 5 l R ^ 4 Q N A M jXjXjXjXjXjXjXjXjXjXjXjX",
"#     2.5X2X2X2X1X,X:X).K.K.H.H.K.S.H.H.A.A.A.A.Z.Z.B.V.n.n.V.B.D.Z.Z.n.k.b 2 2 1 3 z z R W E R Q N A H jXjXjXjXjXjXjXjXjXjXjXjX",
"#   % 2.5X2X<X2X,X,X).K.K.K.K.S.H.S.S.A.S.A.A.A.A.Z.V.Z.D.D.B.B.c.B.B.Z.t.1 3 3 2 3 Y z R R W ~ ~ B P H jXjXjXjXjXjXjXjXjXjXjXjX",
"#   e 0.3X2X2X1X:X'.).G.J.H.G.H.H.S.G.A.A.A.A.A.A.C.C.V.D.B.B.c.B.B.N.R.K 5 3 4 4 4 z Y E E Q / ~ n I jXjXjXjXjXjXjXjXjXjXjXjXjX",
"+   G 0.3X2X:X1X,X'.).K.K.K.H.H.S.H.S.H.A.A.A.A.C.C.C.C.C.B.c.B.C.c.Z.P.n 1 1 1 5 3 z Y W W W ) Q h e.jXjXjXjXjXjXjXjXjXjXjXjXjX",
"+   w e.,X2X1X'.,XK.K.K.G./.H.S.G.G.S.Z.A.A.A.C.A.C.C.B.B.C.c.D.c.C.c.j.c x x > v 2 k E W W _ ~ B 0.I jXjXjXjXjXjXjXjXjXjXjXjXjX",
"+   q I >X2X1X1X).:XK.K.H.K.^.H.G.V.S.A.V.A.A.C.A.C.C.B.B.B.Z.x.B.C.B.j.D ].{.v [.].k z W W / E a l.L jXjXjXjXjXjXjXjXjXjXjXjXjX",
"+   8 } F.2X1X1X'.K.K.).H.S.H.G.G.S.S.V.A.A.Z.A.C.V.D.C.B.c.B.B.B.B.B.P.D ]..X{.v |.( z Q W / B <.%Xm jXjXjXjXjXjXjXjXjXjXjXjXjX",
"o   $ | z.2X:XK.K.K.K./.K.L.H.A.A.S.A.A.A.A.A.B.B.C.B.B.c.n.c.B.B.B.V.R.>.v |.|.].|.|.T N ) Q a z.d.jXjXjXjXjXjXjXjXjXjXjXjXjXjX",
"    %  .f.3X1X).K.H.K./.k.W.G.S./.Z.Z.S.A.C.C.C.V.B.B.C.c.c.c.C.B.C.C.Z.i.c {..X.X.X.X}.z ) B <.;XI jXjXjXjXjXjXjXjXjXjXjXjXjXjX",
"    o G q.1X'.).K.H.K./.8.9.H.S.A.E.U.A.C.A.C.C.B.B.c.C.B.c.B.c.B.V.Z.Z.R.>.Z {..X.X.X.XT N f m.k.V jXjXjXjXjXjXjXjXjXjXjXjXjXjX",
"+     . j <X(.(.K./.K.H.l.j m.E.A.T.1.N.A.V.C.C.B.B.B.c.B.x.B.B.C.C.B.M.A.m.j c [.}.}. X( : i._.e.jXjXjXjXjXjXjXjXjXjXjXjXjXjXjX",
"jXo     u >X,XK.K.H.H.H.W.7.i./.Y.w.-.Z.n.A.C.C.B.B.c.B.D.D.n.B.C.V.V.C.A.V.n.u.h y n Z f 1.J.&XC jXjXjXjXjXjXjXjXjXjXjXjXjXjXjX",
"jXX o   - F.K.K.K.H.H.H.^.9.9.Z.l.j x.Z.C.B.C.C.D.B.B.n.C.c.B.C.C.C.Z.A.A.A.A.S.S.A.x.a.M.J._.e.jXjXjXjXjXjXjXjXjXjXjXjXjXjXjXjX",
"jXjXjXX = b.K.K./.H.H.S.^.q.1./.w.1.R.C.C.Z.V.C.B.c.c.c.c.n.B.V.A.A.C.V.V.A.A.L.L.L.J.L.K._.%XG jXjXjXjXjXjXjXjXjXjXjXjXjXjXjXjX",
"jXjXjXjXg J.K.K./.H.H.H.Y.8.u.E.K 5.S.C.V.B.c.C.c.c.n.n.Z.B.A.B.B.A.C.A.A.A.S.V.A.H.H.K./.;XL jXjXjXjXjXjXjXjXjXjXjXjXjXjXjXjXjX",
"jXjXjX5.F.:X/.K.K.H.H.A.!.7.a.E.S a.Z.Z.V.V.n.B.n.c.c.P.D.C.B.C.C.C.A.S.A.A.S.S.^.G.L.K.;Xe.jXjXjXjXjXjXjXjXjXjXjXjXjXjXjXjXjXjX",
"jXjXh F.K.K.H.K.L.S./.S.T.S b.E.S a.C.C.B.C.D.B.c.C.a.1.V.C.B.A.A.Z.V.A.V.S.G.G.H.L.K._.+Xm jXjXjXjXjXjXjXjXjXjXjXjXjXjXjXjXjXjX",
"jXjXd F.'.K.K.G.H.H.S.E.s.j R.R.S a.A.C.B.B.B.c.c.Z.q.j C.D.B.C.V.A.A.V.A.G.G.V.H.H.(.+XG jXjXjXjXjXjXjXjXjXjXjXjXjXjXjXjXjXjXjX",
"jXjXjXi.K.K./.H.H.S.H.!.J ,.l.g.h a.C.B.B.B.C.c.C.n.w.<.B.C.A.V.A.A.A.S.A.A.G.H.J.;X+Xm jXjXjXjXjXjXjXjXjXjXjXjXjXjXjXjXjXjXjXjX",
"jXjXjXK H.K./.H.G./.Q.OX9 s K 7.f N.Z.B.B.B.c.c.c.P.>.3.V.B.Z.A.V.V.V.A.G.S.H.(.z.I jXjXjXjXjXjXjXjXjXjXjXjXjXjXjXjXjXjXjXjXjXjX",
"jXjXjXh m.H.K./.`.$XL V jXjXp b g C.B.C.B.c.c.c.c.l.g x.Z.Z.C.A.A.A.Z.S.H.^.W.d.A , jXjXjXjXjXjXjXjXjXjXjXjXjXjXjXjXjXjXjXjXjXjX",
"jXjXjXjXp.K./.!.I G jXjXjXjXjXr 3.C.C.n.V.n.Z.B.P.P ;.C.B.B.S.A.A.A.E.^.Q.d.K f F i.2.a jXjXjXjXjXjXjXjXjXjXjXjXjXjXjXjXjXjXjXjX",
"jXjXjXjXi.K.J.e.m jXjXjXjXjXjX;.C.V.C.c.B.C.B.n.t.a p.A.Z.E.E.E.!.U.$Xr.d a F 2.g.J.,Xd.G jXjXjXjXjXjXjXjXjXjXjXjXjXjXjXjXjXjXjX",
"jXjXjXjX8./.F.P jXjXjXjXjXjXg x.C.D.c.C.D.D.I.h.b a t.h.h.d.OXe.L L M ; ; J f.g.K.K.<X$X .jXjXjXjXjXjXjXjXjXjXjXjXjXjXjXjXjXjXjX",
"jXjXjXjX,./.W.K jXjXjXjXjXjX9.Z.D.B.C.C.B.b.OXM jXjXjXjXjXjXjXjXjXjXjXjXjXs J e.+Xd.} ..rXpXjXjXjXjXjXjXjXjXjXjXjXjXjXjXjXjXjXjX",
"jXjXjXjXh U.^.I jXjXjXjXjXjXi.C.B.n.V.n.I.t.V jXjXjXjXjXjXjXjXjXjXjXjXjXjXjXjXjXG  .9XtXpXyXaXjXjXjXjXjXjXjXjXjXjXjXjXjXjXjXjXjX",
"jXjXjXjXjXK $X} jXjXjXjXjXjX6.C.C.B.c.n.s.M jXjXjXjXjXjXjXjXjXjXjXjXjXjXjXjXjXjXjXjXaXpXpXpXjXjXjXjXjXjXjXjXjXjXjXjXjXjXjXjXjXjX",
"jXjXjXjXjXjXs 9 jXjXjXjXjXjXu i.C.c.c.n.y.jXjXjXjXjXjXjXjXjXjXjXjXjXjXjXjXjXjXjXjXjXjXjXjXjXjXjXjXjXjXjXjXjXjXjXjXjXjXjXjXjXjXjX",
"jXjXjXjXjXjXjXjXjXjXjXjXjXjXjXS I.C.c.n.K jXjXjXjXjXjXjXjXjXjXjXjXjXjXjXjXjXjXjXjXjXjXjXjXjXjXjXjXjXjXjXjXjXjXjXjXjXjXjXjXjXjXjX",
"jXjXjXjXjXjXjXjXjXjXjXjXjXjXjXjX>.x.c.Z.9.u jXjXjXjXjXjXjXjXjXjXjXjXjXjXjXjXjXjXjXjXjXjXjXjXjXjXjXjXjXjXjXjXjXjXjXjXjXjXjXjXjXjX",
"jXjXjXjXjXjXjXjXjXjXjXjXjXjXjXjXjX7.I.Z.c.6.jXjXjXjXjXjXjXjXjXjXjXjXjXjXjXjXjXjXjXjXjXjXjXjXjXjXjXjXjXjXjXjXjXjXjXjXjXjXjXjXjXjX",
"jXjXjXjXjXjXjXjXjXjXjXjXjXjXjXjXjXjX6.I.n.P.C jXjXjXjXjXjXjXjXjXjXjXjXjXjXjXjXjXjXjXjXjXjXjXjXjXjXjXjXjXjXjXjXjXjXjXjXjXjXjXjXjX",
"jXjXjXjXjXjXjXjXjXjXjXjXjXjXjXjXjXjXjX7.P.k.L jXjXjXjXjXjXjXjXjXjXjXjXjXjXjXjXjXjXjXjXjXjXjXjXjXjXjXjXjXjXjXjXjXjXjXjXjXjXjXjXjX",
"jXjXjXjXjXjXjXjXjXjXjXjXjXjXjXjXjXjXjXp 7.oXm jXjXjXjXjXjXjXjXjXjXjXjXjXjXjXjXjXjXjXjXjXjXjXjXjXjXjXjXjXjXjXjXjXjXjXjXjXjXjXjXjX"
};
