/* XPM */
static char *result[] = {
/* columns rows colors chars-per-pixel */
"64 64 225 2 ",
"   c #101010",
".  c #111111",
"X  c gray7",
"o  c #131313",
"O  c #161616",
"+  c gray9",
"@  c #181818",
"#  c gray10",
"$  c #1B1B1B",
"%  c gray11",
"&  c #1D1D1D",
"*  c #1E1E1E",
"=  c gray12",
"-  c #202020",
";  c gray13",
":  c #222222",
">  c #232323",
",  c gray14",
"<  c #252525",
"1  c gray15",
"2  c #272727",
"3  c #282828",
"4  c gray16",
"5  c #2A2A2A",
"6  c gray17",
"7  c #2C2C2C",
"8  c #2D2D2D",
"9  c gray18",
"0  c #2F2F2F",
"q  c gray19",
"w  c #313131",
"e  c #323232",
"r  c gray20",
"t  c #343434",
"y  c #353535",
"u  c gray21",
"i  c #373737",
"p  c gray22",
"a  c #393939",
"s  c #3A3A3A",
"d  c gray23",
"f  c #3C3C3C",
"g  c gray24",
"h  c #3E3E3E",
"j  c #3F3F3F",
"k  c gray25",
"l  c #414141",
"z  c gray26",
"x  c #434343",
"c  c #444444",
"v  c gray27",
"b  c #464646",
"n  c gray28",
"m  c #484848",
"M  c #494949",
"N  c gray29",
"B  c #4B4B4B",
"V  c #4C4C4C",
"C  c gray30",
"Z  c #4E4E4E",
"A  c gray31",
"S  c #505050",
"D  c #515151",
"F  c gray32",
"G  c #535353",
"H  c gray33",
"J  c #555555",
"K  c #565656",
"L  c gray34",
"P  c #585858",
"I  c gray35",
"U  c #5A5A5A",
"Y  c #5B5B5B",
"T  c gray36",
"R  c #5D5D5D",
"E  c gray37",
"W  c #5F5F5F",
"Q  c #606060",
"!  c gray38",
"~  c #626262",
"^  c gray39",
"/  c #646464",
"(  c #656565",
")  c gray40",
"_  c #676767",
"`  c #686868",
"'  c DimGray",
"]  c #6A6A6A",
"[  c gray42",
"{  c #6C6C6C",
"}  c #6D6D6D",
"|  c gray43",
" . c #6F6F6F",
".. c gray44",
"X. c #717171",
"o. c #727272",
"O. c gray45",
"+. c #747474",
"@. c gray46",
"#. c #767676",
"$. c #777777",
"%. c gray47",
"&. c #797979",
"*. c gray48",
"=. c #7B7B7B",
"-. c #7C7C7C",
";. c gray49",
":. c #7E7E7E",
">. c gray50",
",. c #808080",
"<. c #818181",
"1. c gray51",
"2. c #838383",
"3. c #848484",
"4. c gray52",
"5. c #868686",
"6. c gray53",
"7. c #888888",
"8. c #898989",
"9. c gray54",
"0. c #8B8B8B",
"q. c gray55",
"w. c #8D8D8D",
"e. c #8E8E8E",
"r. c gray56",
"t. c #909090",
"y. c gray57",
"u. c #929292",
"i. c #939393",
"p. c gray58",
"a. c #959595",
"s. c gray59",
"d. c #979797",
"f. c #989898",
"g. c gray60",
"h. c #9A9A9A",
"j. c #9B9B9B",
"k. c gray61",
"l. c #9D9D9D",
"z. c gray62",
"x. c #9F9F9F",
"c. c #A0A0A0",
"v. c gray63",
"b. c #A2A2A2",
"n. c gray64",
"m. c #A4A4A4",
"M. c #A5A5A5",
"N. c gray65",
"B. c #A7A7A7",
"V. c gray66",
"C. c #A9A9A9",
"Z. c #AAAAAA",
"A. c gray67",
"S. c #ACACAC",
"D. c gray68",
"F. c #AEAEAE",
"G. c #AFAFAF",
"H. c gray69",
"J. c #B1B1B1",
"K. c #B2B2B2",
"L. c gray70",
"P. c #B4B4B4",
"I. c gray71",
"U. c #B6B6B6",
"Y. c #B7B7B7",
"T. c gray72",
"R. c gray73",
"E. c #BBBBBB",
"W. c #BCBCBC",
"Q. c gray74",
"!. c gray",
"~. c gray75",
"^. c #C0C0C0",
"/. c #C1C1C1",
"(. c gray76",
"). c #C3C3C3",
"_. c gray77",
"`. c #C5C5C5",
"'. c #C6C6C6",
"]. c gray78",
"[. c #C8C8C8",
"{. c gray79",
"}. c #CACACA",
"|. c #CBCBCB",
" X c gray80",
".X c #CDCDCD",
"XX c #CECECE",
"oX c gray81",
"OX c #D0D0D0",
"+X c gray82",
"@X c #D2D2D2",
"#X c LightGray",
"$X c gray83",
"%X c #D5D5D5",
"&X c gray84",
"*X c #D7D7D7",
"=X c #D8D8D8",
"-X c gray85",
";X c #DADADA",
":X c gray86",
">X c gainsboro",
",X c #DDDDDD",
"<X c gray87",
"1X c #DFDFDF",
"2X c gray88",
"3X c #E1E1E1",
"4X c #E2E2E2",
"5X c gray89",
"6X c #E4E4E4",
"7X c gray90",
"8X c #E6E6E6",
"9X c #E7E7E7",
"0X c gray91",
"qX c #E9E9E9",
"wX c #EAEAEA",
"eX c gray92",
"rX c #ECECEC",
"tX c gray93",
"yX c #EEEEEE",
"uX c #EFEFEF",
"iX c gray94",
"pX c #F1F1F1",
"aX c gray95",
"sX c #F3F3F3",
"dX c None",
/* pixels */
"}..X}.].[.XX Xx.f %._.=X<X2X1X;X+X=X,X,X8X6X3X2X3X3X2X,XV.j.XX8X3X;XdXdXtX0X-X6X3X<X:X1X1X2X1XQ.x.9.^.&X$X@X;X-XE. X#XoX+X$X:X#X",
"oXOX@XOX@X*X*XP.7 ` @X-X,X;X>X,X<X5X3X6X0X0XwX7X8X7X6X5Xu.+.:XrXeX0XqX0XrXqX3X6X9X6X4X4X6X7X7X/.6.$._.,X6X5X4X3X#X$X#X|._.#X#XoX",
";X>X:X%X:X>X:X_.q ` &X*X>X,X3X3X2X6X4X8XwXwXwXwX0X0X9X5X2.Y $XpXdXuXtXrXtXrXrXeXwXqXeXwXrXeXwXV.>.2.;X2X5X8XqX2X.X#X2X-X#X@X#XXX",
"<X3X3X,X<X2X2X(.e I +X:X<X4X8X4X5X8X8X7X9XwXwXeXeXeXqX7X<.U ;XyXdXuXwXtXuXuXiXyXrXeXrXrXtXrXrX@XN.3.=X5X7X9X4X;X`.-X<X2X<X<X*X=X",
"5X7X6X5X7X5X4X^.a A }.<X6X5X4X4XqXwXwXqXeXeXeXqXqXrX8X7X=.D 1XdXdXdXyXrX0XuXdXdXuXyXdXdXtXwXtXwXS.>.-X0XqX6X+X:XOX-X3X2X5X5X$X,X",
"4X0X8X8X0X7X8X~.A { &X3X0X9X8X7XtXrXrXuXuXtXtXrXrXyX6X5X*.B -XdXdXdXdXdX0XdXdXdXdXdXdXdXyXeXyXrXr.~ @XwX7X-X&X6X8X8XwX4X7X9X4X4X",
"*X8X7X8X$X~.-X'. .4.:X6X9XqXrXrXrXyXyXiXuXdXdXdXdXuX5X7X3.E .XtXwX0XyXdXrXiXyXuXdXdXuXdXdXeXyXqX&.A $X9XwX*X+X8XqX9XqX8X9X0X7X2X",
"E.#X<X3X/.!.@X/.@.5..X4X0X9X0X6X0XyXpXiXpXpXuXuXrXwX,X].{ / -XsXaXsXpX XA.{.pXsXpXeX1XeXdXdXdX6X-.A `.3XuX4X=X3X1X2X%X4X4X;X0X7X",
"~ +.y.e.5.,.r.q.X.o.8.M.n.P.A.D.n.F.{.{.'.].|.}.G.Z.F.n...%.G.Q.J.M.C.x.2.) ;.8.>.9.y.8.3.:.f.m.$.#.V.F.z.9.q.e.e.u.%.:.m.A.U.Y.",
"Z x j j l k C F y.t.K H I J K R G G K G G D ` ! A J G Q h.6.Z v n k n P Y D v n A Y U Y / L ^ } 8.0.) W ^ ^ Q #.@...&.~ B N Z A ",
"dXdXdXdXdXdXdXdXdXdXdXdXdXdXdXdXdXT.r.S.dXdXdXdXdXdXdXdXdXdXdXdXdXdXdXdXdXdXb.n.dXdXdXdXdXdXdXdXdXdXdXdXdXdXdXdXdXdXt.=.l.v.g.dX",
"2X6X8XdXdXdXdXdXdXdXdXdXdXdXdXdXOXW.P i.dXdXdXdXdXdXdXdXdXdXdXdXdXdXdXdXdXdX~ ` dXdXdXdXdXdXdXdXdXdXdXdXdXdXdXdXdXdX! 5 $.$XdXdX",
"[.6XwX4XdXdXdXdXdXdXdXdXdXdXdXdXdXdXa =.dXdXdXdXdXdXdXdXdXdXdXdXdXdXdXdXdX8X! ! >XdXdXdXdXdXdXdXdXdXdXdXdXdXdXdXdXdX{ N H.OX X(.",
"dXdXdXdXdXdXdXdXdXdXdXdXdXdXdXdXdXdXs *.dXdXdXdXdXdXdXdXdXdXdXdXdXdXdXdXdX5X) T dXdXdXdXU.dXdXdXdXdXdXdXdXdXdXdXdXdX+.V ).dX.XK.",
"dXdXdXdXdXdXdXdXdXdXdXdXdXdXdXdXdXdXf O.dXdXdXdXdXdXdXdXdXdXdXdXdXdXdXdXdXdXR F dXdXdXdXdXdXdXdXdXdXdXdXdXdXdXdXdXdX! g [.dXdXdX",
"dXdXdXdXdXdXdXdXdXdXdXdXdXdXdXdXdXdXb O.dXdXdXdXdXdXdXdXdXdXdXdXdXdXdXdXdXdXJ b dXdXdXdXdXdXdXdXdXdXdXdXdXdXdXdXdXdX_ w XXdXdXdX",
"dXdXdXdXdXdXdXdXdXdXdXdXdXdXdXdXdXdXb ` dXdXdXdXdXdXdXdXdXdXdXdXdXdXdXdXdXdXv i dXdXdXdXdXdXdXdXdXdXdXdXdXdXdXdXdXdX! 3 {.dXdXdX",
"dXdXdXdXdXdXdXdXdXdXdXdXdXdXdXdXdXdXA X.dXdXdXdXdXdXdXdXdXdXdXdXdXdXdXdXdXdXM z G.dXdXdXdXdXdXdXdXdXdXdXdXdXdXdXdXdX| q dXdXdXdX",
"dXdXdXdXdXdXdXdXdXdXdXdXdXdXdXdXdXdXm W dXdXdXdXdXdXdXdXdXdXdXdXdXdXdXdXdXdXP z S.dXdXdXdXdXdXdXdXdXdXdXdXdXdXdXdXdX| 6 dXdXdXdX",
"s.r.h.dXdXdXdXdXdXdXdXdXdXdXdXdXdXdXw z dXdXdXdXdXdXdXdX6.dXdXdXdXdXdXdXdXdX` l 9.dXdXdXdXdXdXdXdXdXdXdXdXdXdXdXdXdX] g 4.dXdXI.",
"X . o O + : , = 1 2 0 7 y 0 8 l c j 3 % @ . o   O ; 2 > O ; 6 0 e : 1 x l w Z H 9 0 - > - & # # % # @ + % * % $ # - J Y $ = 1 3 ",
"C N c p 3 3 1 4 6 6 3 ; : < 5 3 : r E I z 0 0 t q r a h S Y C H T ~ ' Q P / v.V.$.E ] ( E R R U Y W ..+.@.+.o.%.o./ @.8.} Q !  .",
"dXdXdXdXdXdXdXdXq.S.dXdXdXdXdXdXdXdXdXdXdXdXdXdXdXdXdXdX0.Z.dXdXdXdXdXdXdXdXdXdXdXdXdXdXdXdXdX~.w.-.dXdXdXdXdXdXdXdXdXdXdXdXdXdX",
"dXdXdXdXdXdXdXdXO.b.dXdXdXdXdXdXdXdXdXdXdXdXdXdXdXdXdXdXK | dXdXdXdXdXdXdXdXdXdXdXdXdXdXdXdXOXP.#.G dXdXdXdXdXdXdXdXdXdXdXdXdXdX",
"dXdXdXdXdXdXdXdXq.J.dXdXdXdXdXdXdXdXdXdXdXdXdXdXdXdXdXdXZ ..dXdXdXdXdXdXdXdXdXdXdXdXdXdXdXdXdXdX..U dXdXdXdXdXdXdXdXdXdXdXdXdXdX",
"dXdXdXdXdXdXdXdXf.dXdXdXdXdXdXdXdXdXdXdXdXdXdXdXdXdXdXdXh G dXdXdXdXdXdXdXdXdXdXdXdXdXdXdXdXdXdXM A dXdXdXdXdXdXdXdXdXdXdXdXdXdX",
"dXdXdXdXdXdXdXI.0.dXdXdXdXdXdXdXdXdXdXdXdXdXdXdXdXdXdXdXf f dXdXdXdXdXdXdXdXdXdXdXdXdXdXdXdXdXdXu D dXdXdXdXdXdXdXdXdXdXdXdXdXdX",
"dXdXdXdXdXdXdXdX} 6.dXdXdXdXdXdXdXdXdXdXdXdXdXdXdXdXdXdXH ' dXdXdXdXdXdXdXdXdXdXdXdXdXdXdXdXdXdX> E dXdXdXdXdXdXdXdXdXdXdXdXdXdX",
"dXdXdXdXdXdXdXdXB t.dXdXdXdXdXdXdXdXdXdXdXdXdXdXdXdXdXdXW ! dXdXdXdXdXdXdXdXdXdXdXdXdXdXdXdXdXdXw v dXdXdXdXdXdXdXdXdXdXdXdXdXdX",
"dXdXdXdXdXdXdXdXV j.dXdXdXdXdXdXdXdXdXdXdXdXdXdXdXdXdXdXB G dXdXdXdXdXdXdXdXdXdXdXdXdXdXdXdXdXdXC C dXdXdXdXdXdXdXdXdXdXdXdXdXdX",
"m.dXdXdXdXdXdX8.[ f.u.dX8.o.:.j.&.<.y.b.dXdX8.$. .{ &.@.m h / dXZ c M c u a p i t 4 0 a c d q 8 ] ] P T P A x < p c c G X.-.#.O.",
"Y n c n c z C ] m._ v k k x l f u d v m x k a i q t y l ' | j j v M m Z D B x k h n D P T V z b ^ ~ 8 4 , ; 3 , - - , % , 5 t y ",
"c.dXdXdXdXdXdXdXdXdXdXdXdXdXdXdXdXdX%.;.dXdXdXdXdXdXdXdXdXdXdXdXdXdXdXdXdXdXa.w.dXdXdXdXdXdXdXdXdXdXdXdXdXdXdXdXdXdX^ -.dXdXdXdX",
"dXdXdXdXdXdXdXdXdXdXdXdXdXdXdXdXdXdXF ^ dXdXdXdXdXdXdXdXdXdXdXdXdXdXdXdXdXdX4.-.dXdXdXdXdXdXdXdXdXdXdXdXdXdXdXdXdXdXb O.dXdXdXdX",
"dXdXdXdXdXdXdXdXdXdXdXdXdXdXdXdXdXdXV T dXdXdXdXdXdXdXdXdXdXdXdXdXdXdXdXdXdX=.{ dXdXdXdXdXdXdXdXdXdXdXdXdXdXdXdXdXdXs L dXdXdXdX",
"dXdXdXdXdXdXdXdXdXdXdXdXdXdXdXdXdXdXC T dXdXdXdXdXdXdXdXdXdXdXdXdXdXdXdXdXdXL J dXdXdXdXdXdXdXdXdXdXdXdXdXdXdXdXdXdXf U dXdXdXdX",
"dXdXdXdXdXdXdXdXdXdXdXdXdXdXdXdXdXdXn E dXdXdXdXdXdXdXdXdXdXdXdXdXdXdXdXdXdXF U dXdXdXdXdXdXdXdXdXdXdXdXdXdXdXdXdXdXt n dXdXdXdX",
"dXdXdXdXdXdXdXdXdXdXdXdXdXdXdXdXdXdXn I dXdXdXdXdXdXdXdXdXdXdXdXdXdXdXdXdXdXL I dXdXdXdXdXdXdXdXdXdXdXdXdXdXdXdXdXdX5 a dXdXdXdX",
"dXdXdXdXdXdXdXdXdXdXdXdXdXdXdXdXdXdXN K dXdXdXdXdXdXdXdXdXdXdXdXdXdXdXdXdXdXI Y dXdXdXdXdXdXdXdXdXdXdXdXdXdXdXdXdXdXg p dXdXdXdX",
"dXdXdXdXdXdXdXdXdXdXdXdXdXdXdXdXdXdX( ~ dXdXdXdXdXdXdXdXdXdXdXdXdXdXdXdXdXdX_ / dXdXdXdXdXdXdXdXdXdXdXdXdXdXdXdXdXdXm a dXdXdXdX",
"dXdXdXdXdXdXdXdXdXdXdXdXdXdXdXdXdXdXe.d.dXdXdXdXdXdXdXdXdXdXdXdXdXdXdXdXdXdXf.9.dXdXdXdXdXdXdXdXdXdXdXdXdXdXdXdXdXdXf 5 dXdXdXdX",
"dXdXdXdX} *.,.^ dX! U Q +.$.T Z S R U.s.Q m R B H ) U U F J D x j M V Z D x W 2.I M j P ( [ dXZ d K ^ +...dXdXdXQ Z ~ m M _ { _ ",
"! R W Q ~  .O. .#.3.<.7.6.-.%.#.-.-.dXdX8.2.:.=.,.%.*.&.:.7.<.$.,.3.$.&.1.5.u.B.O.X. .o.! N J o.#.' S H U W A D W O.V.dX$.| / { ",
"dXdXdXdXdXdXdXM.w.dXdXdXdXdXdXdXdXdXdXdXdXdXdXdXdXdXdXdXp.r.dXdXdXdXdXdXdXdXdXdXdXdXdXdXdXdXdXdXn.1.dXdXdXdXdXdXdXdXdXdXdXdXdXdX",
"dXdXdXdXdXdXdXa.s.dXdXdXdXdXdXdXdXdXdXdXdXdXdXdXdXdXdXdX_ J dXdXdXdXdXdXdXdXdXdXdXdXdXdXdXdXdXdX#.O.dXdXdXdXdXdXdXdXdXdXdXdXdXdX",
"dXdXdXdXdXdXdXk.2.dXdXdXdXdXdXdXdXdXdXdXdXdXdXdXdXdXdXdXx n dXdXdXdXdXdXdXdXdXdXdXdXdXdXdXdXdXdX' +.dXdXdXdXdXdXdXdXdXdXdXdXdXdX",
"dXdXdXdXdXdXdXr._ dXdXdXdXdXdXdXdXdXdXdXdXdXdXdXdXdXdXdXy w dXdXdXdXdXdXdXdXdXdXdXdXdXdXdXdXdXdXT } dXdXdXdXdXdXdXdXdXdXdXdXdXdX",
"dXdXdXdXdXdXdXp.` dXdXdXdXdXdXdXdXdXdXdXdXdXdXdXdXdXdXdXu i dXdXdXdXdXdXdXdXdXdXdXdXdXdXdXdXdXdX..~ M.dXdXdXdXdXdXdXdXdXdXdXdXdX",
"dXdXdXdXdXdXdX#.A dXdXdXdXdXdXdXdXdXdXdXdXdXdXdXdXdXdXdXx f dXdXdXdXdXdXdXdXdXdXdXdXdXdXdXdXdXdX) S p.dXdXdXdXdXdXdXdXdXdXdXdXdX",
"dXdXdXdXdXdXdXg.X.dXdXdXdXdXdXdXdXdXdXdXdXdXdXdXdXdXdXdXB u dXdXdXdXdXdXdXdXdXdXdXdXdXdXdXdXdXdX) T 7.dXdXdXdXdXdXdXdXdXdXdXdXdX",
"dXdXdXdXdXdXdXF.<.dXdXdXdXdXdXdXdXdXdXdXdXdXdXdXdXdXdXdXN v dXdXdXdXdXdXdXdXdXdXdXdXdXdXdXdXdXdX=.~ O.dXdXdXdXdXdXdXdXdXdXdXdXdX",
"dXdXdXdXdXdXdXdXu.dXdXdXdXdXdXdXdXdXdXdXdXdXdXdXdXdXdXdX' Q n.dXdXdXdXdXdXdXdXdXdXdXdXdXdXdXdXdXK.g.1...dXdXdXdXdXdX-.-.$.dXdX-.",
"s.dXdXdXdXdXdXdXM.2.9.e.4.g.i.,.y.7.5.3.+.dXn.m.dXdXdXV.C.l.i.:.I Z U Q ~ R L F A J T H D B c K +.u.-.~ G A C n N x b A D A c b ",
"/ ~ ( { ( ~ ' [ k.$...[ O.<.@.' =.$...} !  .<.y.s.u.7.2.N.M. .' T Z Y | [ T '  .' <.w.e.5.>.-.3.b.dX3.5.h.f.i.j.b.y.y.r.c.V.S.L.",
"dXdXdXdXdXdXdXdXdXdXdXdXdXdXdXdXdXdXD ) dXdXdXdXdXdXdXdXdXdXdXdXdXdXdXdXdXdXdX1.dXdXdXdXdXdXdXdXdXdXdXdXdXdXdXdXdXdXdXn %.dXdXdX",
"dXdXdXdXdXdXdXdXdXdXdXdXdXdXdXdXdXdXN g dXdXdXdXdXdXdXdXdXdXdXdXdXdXdXdXdXdX8.j dXdXdXdXdXdXdXdXdXdXdXdXdXdXdXdXdXdXdXk X.dXdXdX",
"dXdXdXdXdXdXdXdXdXdXdXdXdXdXdXdXdXdX+.K dXdXdXdXdXdXdXdXdXdXdXdXdXdXdXdXdXdX=.B dXdXdXdXdXdXdXdXdXdXdXdXdXdXdXdXdXdXdX4 ) dXdXdX",
"dXdXdXdXdXdXdXdXdXdXdXdXdXdXdXdXdXdX=.Y dXdXdXdXdXdXdXdXdXdXdXdXdXdXdXdXdXdX~ x dXdXdXdXdXdXdXdXdXdXdXdXdXdXdXdXdXdXdX> V dXdXdX",
"dXdXdXdXdXdXdXdXdXdXdXdXdXdXdXdXdXdX! N dXdXdXdXdXdXdXdXdXdXdXdXdXdXdXdXdXdXY p dXdXdXdXdXdXdXdXdXdXdXdXdXdXdXdXdXdXdX6 l dXdXdX",
"dXdXdXdXdXdXdXdXdXdXdXdXdXdXdXdXdXdX( A dXdXdXdXdXdXdXdXdXdXdXdXdXdXdXdXdXdXH b dXdXdXdXdXdXdXdXdXdXdXdXdXdXdXdXdXdX[.1 n dXdXdX",
"dXdXdXdXdXdXdXdXdXdXdXdXdXdXdXdXdXdXG Y dXdXdXdXdXdXdXdXdXdXdXdXdXdXdXdXdXdXdXZ !.dXdXdXdXdXdXdXdXdXdXdXdXdXdXdXdXdXdX1 B dXdXdX",
"dXdXdXdXdXdXdXdXdXdXdX2X;XdXdXdXdXdXM M dXdXdXdXdXdXdXdXdXdXdXdXdXdXdXdXdXdXdX) ^.dXdXdXdXdXdXdXdXdXdXdXdXdXdXdXdXdXdX1 k dXdXdX",
"dXdXdXdXdXdXdXdXdXdXdXdXdX&XdXdXdXdXD M dXdXdXdXdXdXdXdXdXdXdXdXdXdXdXdXdXdX*.K H.dXdXdXdXdXdXdXdXdXdXdXdXdXdXdXdXdXdX; 3 dXdXdX",
"dXdXdXdXdXdXdXdX.X$X<X3XdXdXdXdXdXdX( E dXdXdXdXdXdXdX;X1XdXdX1XdXdXdXdXdX9Xh.P v.dXdXdXdXdXdXdXdXdXdXdXdXdXdXdXdXdXdXP a R.dXdX"
};
